<mxfile host="app.diagrams.net" modified="2022-01-07T09:19:14.949Z" agent="5.0 (Windows NT 10.0; Win64; x64) AppleWebKit/537.36 (KHTML, like Gecko) Chrome/97.0.4692.71 Safari/537.36" etag="TVxs0cJFW13zt3IeYId3" version="16.2.2" type="github">
  <diagram id="50CfDN7zMZMZiT8PBJIm" name="Page-1">
    <mxGraphModel dx="1422" dy="762" grid="0" gridSize="10" guides="0" tooltips="1" connect="0" arrows="0" fold="1" page="0" pageScale="1" pageWidth="1920" pageHeight="1200" math="0" shadow="0">
      <root>
        <mxCell id="0" />
        <mxCell id="1" parent="0" />
        <mxCell id="0vJlOstJJPzeJg9LQ7au-5" value="" style="group" parent="1" vertex="1" connectable="0">
          <mxGeometry x="396" y="210" width="230" height="353" as="geometry" />
        </mxCell>
        <mxCell id="0vJlOstJJPzeJg9LQ7au-2" value="" style="shape=image;verticalLabelPosition=bottom;labelBackgroundColor=#ffffff;verticalAlign=top;aspect=fixed;imageAspect=0;image=data:image/png,iVBORw0KGgoAAAANSUhEUgAAAIwAAABXCAYAAADWOa3SAAAgAElEQVR4Aay9Z3NkW3aeiR8zH2c0EYoYDYdBRVAh9gxtk2yS3VRTfV0ZeCTSe++990ggE0DCA4UyQLlr6rru2602dNKM9GV+yjvxrnNW4iALdft2xHxYsfc5iRtBqZ5+l937LPxs3YfjJSfq9S0kuxOkuxMkOtsoNPr46YoLl4EUUv09pDoTJNtjpDpjJNs7SLS237J4c4RofTizSG2AcLWPWGML3NN0H6gP8dwdw1NPAtFSFwObH85ESf4+WO4iUOqY1kKg3ESgXIe/XIOvSKvftkID65EsfrLqxGowBXuyBEeugW4wg39ccuLJihu2aB6uTA3OdHVmfNZ3jlQFNHuyPLPNRAl3mS1exFokJ8b9RqzwlunvXFfD2W+1lVBGfue6FEhhOZgW437Rn8QDb1x+5/uHvsQ7LImHviTue+NI2QN49N4SNhwBfOSO4h7NE0PR5sfikh21RRtW7T585IngI08UH3li+NAdxYfuyFv2gSsMqy3sVHq4vm/DsSeOYn8P6d4uMr1dpDo7OEyU8NV9G7ZzDcTbOzNYCIyagkNY4o0tWKFRYAhRzAISnyP1IXrpKr5Z9SJV6mIYziLiTyJogmJAY4JT7iBYbiNQbsNfasFXpDXhN1dfoQlfoQVvvinmyTXgydWRSOTw9YoLv1jxIOSNw5mtCyBWUBQgBca6Kjzz0BCS9Whe/hEJC/dWaPi7/g1/oyk4hEKNIHFPEHR9FzAKjwJDkKz2kGD5E3jgS6BkD+DpvXXcd4YNWNxR3HdHUVn34d5DO9oPN7HoCuGeNzYDxgCH8MyDE8UHrohpUSzk+nt4HM7h6P0VHGdqSPf3BBiCU2iO8MVmCK8Xnag0R0ha1EWB0VWA4d+0dwQaKomAURvIymd9x/dUnmSpg0/sITwmrLkGSvYg/KUOQpUeCMxdRuXxF9sCiHVPYKzQePN1BLJFXK+58etVD4bOEByZqgDjNsFRWO5a59VG4eGqqkIIdK+QcFXArBBxr9BYFUdBUXjmgSFMVjDetRdYBJg4muteHD/YxEfeGO57DFv0xFBd8+L+kgPDZZeAQWDUqC5WJTHUxlCf9538jSDFsJAd7KPTHuPNkhPje+vo1YemwowFnmGxg398fxXTSB6ZLt2S4Y4ICPd0YeLGTBdFl2VVHQVFV8KiRgUax4v41webKGbq2HLHsO5PIlwbvBMaKyTW/TwwVB1voYp9TwT/z4NNnG144UkWobCoyujzPDTvAkbfKygKh3VVeOaBUaWxqo4CQ5ho+kxQVFXokqwg8bd5kB4SFn8Ci744xqtutB7YcM+fmAGz4o4iv+yC7f4GGmtefOSLWxTGUJa71IXuirCoLWT7e8gNpzjMt/Dxh2uYehModcYzaBKdMR5H8niz6ESr0pupDGEhHGqqMAqLrgqK/q7Poj71IXLlLv7LshungYy4qNySE55iW4Ch0lhNFYegWI2KYzV1Td5iA+1oFr9YtOOLFRci4STcObqlG9c0D4yCJLGNGdfc5aaoNATCqigKDd8pFFZoFAp9x79RZVHVsQKj0NANWYHhft4WA0k8DCSx6k/geMWN3LJToOB/S5XZcEUQX3Iie9+GyKYfH0rsEhVoqCZUmvu+uOmibgAy4hvGOAY4C7nBPvLDKag0L0JZPL23gXG2IYGuxDLdCfKdMb60BfDMm5DAeB4WQqPKo6Dwmaag6GoFRlxTfYijUA5fr/lQK3VwaQ/BGcmJy7LCovt3QWMFiHtxT4UWUpkyvlxx4ucrTlQ9IXjydXiyjZnSKDBWUPSdqs7vCgzBUSh0VUUiJPrOCozCpCpDcGgEg27otwOTwmIwBZs/gbNlJ+KbAdzzJeS/ZcDrdkUQeLiJ/qIdm66wuCtCQlXiao1hbu/5G0GK40NPDAv54T4KWweg0lTaO3ix6sWjJSdanW1kBhNk+hNk+7vYz9Tw5b0N7BZayEjWdKMudEl3QUNIFBCuBESfxS0xi6oNkCh38dWGH5N4CcN0DSVnBKFq/5a6fFdgCJQR4zDOacOXrePSFcF/fWjH2O4XhaECebJ1gYZw0Bgo617hITBWWNQdaTyjrkeVxVjL2ExonMMMyjD+ZosTpJusisAQEKqLAQyfjXfyPpLDcsiIYZZMN6SqY1UYAsWglwrj9sZx8dAOvyeKB1QdX0L+oRP2IHwPNzF8aMeSNypqQkUhMFzvU4l8ccmWboCJ4UNPHB+4DYX5yJvAQmE0FYVRlZlmG3hybwMn/gSK3S1kB2NkBxMU29v4xB3D60UHms3RLJtSWNQ1WVeqDaFRpSEsVqURt1TtI9wc4TSUxaf2EJKNLWy7ogilqwITg2OFxbqq0nClouizxjJcRWlKHYzCWfzyoR0v1n3wpWsCBwEhOAqJAqOw6DoPjPVZlYSrPVkV20xUYIsTGMP4bDUDmrvS8ALWInMWLWAlkhXlWAqlscyMylQeKziyD6bwMJhC2BPDo0UHbASGEPkS+MAbR2XDD9+iHb1FOz5gICyQ3ABzz8uYhmpzYwTkI38S77tjeJ9BryeBhdL20QwYQlPq7+ETXxLTD5axm68JMLnBLlK9CbrVPn790TpOQlnkzPRbg15d7wKG79RlKTC6itI0R6jlm/jZmhfdfBPtWBEpX1LUiCBYQdG9AjIPzLxrYtaVytbx9ZITP1t2IRLJzdJvcVsmNEYqfuOq5oFR92RdNY75/wMYQ3moQKUZOKtUmHDmlhEgVSWFRoF5EEwh7YrgbMmJJV8chIxKRPXornsRXnSgtOLChyYsVoW5G5g43vfG8YGqjDOCBbojmsYy+a0DtDtjfLPkwOG6G63OluGaehOkB/s4ixfxxQM7OpUeGBArKPOrgkNQFBju3wVOqj7EM3ccX637USp30HaG4Su2JZbRop9VbRQUKyCqKvrOGghf20P4zaIDLWcEXo1xzLqNuCiLS7pLbayg6F5TbK5WFVG1ocoQABr3xt9wNQqCGssYK12V8bfrUQbNRaxG8wIL/+EJymo0B0JEF0ZIGONosEyXdT+UQtUexN6iHQ+9MTzU4NiXwGjVg+SSE6HNAO4HzJqNmVnNUnJ/Cg9MI2R0RzNgPHG4HREsMB6hyhAaKozAMzrAYbGBFw82cBLJID/aR26wJ3FOvjuR2slTVwx5xjJm/PIuYBQc60poVGF0jTVH6Gcb+PUDO7YyNWwHMwiGMuKWRIVY7DMrxwqOqgxVh3sCQlj0va7echc7rPouOnG+5hWXRLjULREYPqt74qoKY93zncLC1QClZFaIa7AnaYZr4qpu6QYWuqcbYDQGMgJiAxZCo8CsRfMCyl3AaFAsazgravIglMbWZgDDZScWmWIHU1gMpODwxjFYcSGz6IDDEZq5I1WYu4FJgi7pA28CH3oTeN8TR2MjgAWm1JXxCYqjQ4HFUJwpqjvMmlI4+WgVx6U2cltGJsW/3yl18cVHGzjJN822we0AmPBYAZnfvwuYZH2IV64oXrljaOab6K+4RA3eBYy6p7sA0t+4+kttFDI1/GzFjW/oluJFeIvtW66JsKlb4moFxgrSu4BxpOow7AYaq+rc7G+AUaXhqurybcCsUGGiRr2GyqIKs0LFCaVxL5TG4YYPjQ0flkJG1rQYTCPjiqCw4kZ20Y5VVn3nXNJvA4bQ3HdFpeC3UBpNRWGsKkOlKW4fYtjaxuslJ87WvGi1x6IwTL8LvV288sTx8t4GWs2RZE3MsggKU3GjtWDELYTjLmCs7zU4jjS20M/W8dNVD1rFNs59CYRDGUTNXhTBoFmVhipCKPQ3VRWuVtcUyzfxyWYQv15xo+tNwGNWhiWOKTThmbd8w6zZGKrCYFchUmj4zH9sfeZqDYrtSfambhSHe1UY/p0VmLvSbroqQiEZUjSLpVgOy7EcFBy6KTXGOlSYp0tOZDZ8s0CZ7zr2AELrXhRX3DfKwyDZrN3cAGMU/wgUYxpWilmvobkdIWQe2LBQ3jmeAUOVsRrV5lG6huv3VjAN5yQgZqxDaHrNEb55YMeZP4WiBRSCQ2CsLuq7AiNZVGMLnznCOAtlUC91MXJFEK70bkGiMQ1XVRIFRp+5KjyyL7Zx6E3gvy05ceoIwZ9rzIp9jJW8xZbYDBwzvlGXRBi41/iGzwRGAVFo9Jnr7wKMurfbcc3bwBCau4BZCmewEUrj+bILsc0AFpmOEwp/Aju2ADZXXcgTJNZ16Kp+CzCqQto6yNiDWLm3joXSzilK2zfQUGloBIdKw17T5/40Lu/ZMKr0xQUJNFsHOMjU8cWDTYwqPWQG+9I6IDBWaOZh0ed5hdGCX6Q5wiRRArvoydoAe8EMEumqZExWULiXtNwS16j68DcrQKo27Wgev3nowBdrXsST5VnMw0zKV2qLERyFxsv2Ams2ZkBsdVkKksuMZRQYrjfQzKvL7RjGqjC6V6UhOKzTUGGYSi+pwsQNtyQBcDQ3UxgC4/fF8WzJCb8rLEBQdQjR/oYPD5cdyG0GRFWssMyrzO24xki7H/jiKK65sXR/HQuVyYnEMIxjFBRVGSpMdjhFozvBxytuPHaEUB3uSyuB0FBFXjnCuLYFUKCymOqiwBAOBcOqONwrONaVf0twytU+vrAFcBLJo5JrohrKIN7anhX+NKbRVeFQYFRlVIEEmHIXGXbHl5z4ZtWDRiQnjU66LQLjL9+YQkNgxGWZ0FiBUYioMlQHjXP4fAMP45qbmEZdkqoJIeHe+sx3qjJaCWa8shjJYCmWxTKBieWwFssbWZMZ1yxHc8j7Enh83waHJyYKQ4i8gRT6ax7YVpxIOA2QCIy6IVUbhUiBMdySUQle8saQWdxE+KEDC8nOAFUTGronqxEcQsNU+zRdw+N7NjyKFlBkHLN1IMW7UbmLzxYdOE5VxVXRHanKcJ0HRZ+toOiewDBrSjRHOA5n8V9W3GhUehh5E/AXWqIyCsm7VqkomwqjwChA4VIHL+wh/NOiA3veBAJmVmUFJlDpCjwyQvFWB9xQm3lwqCh3AWP0rBpwputiBjzGzI0qyrcBo2ojqXSigJVE/luBabqjeLxox0YgZWRX4QySvjiS6x4kVl0IeqJm1pWZuaTfBgyblG5nCImHNoQ2ilgIlaqoTU5nKkOloSk4qjrV/h6+dkWlo71X7qIwOhRA8oN9XIVzePHROvr1oQCiwIjrMlVHg+F3AaMuidBwjKJR7uIXiw6cRQvYSZSRC2YQbW3/VmgEGLMjHmkMEar1Ear2EKz24Kv0sBfO4Z8f2nFlCyCca4iCBJiSWxSGe3FRHKMwjarjlkCYwbBhBMeVrcGWKMLBwaxsTWy2p9owzqGbEldVhT1dEdtMlWFLluS/5X+/yVoORycSZazHimI2qk28YGRG8QLW4nmsUlli+TsVZncziONVD9bMYt9SKIOKOwrnuhf1FTec3jiYNS2H05Ysiul3wgyAqTxJ3Ocglo8V37gU+WqbQUQXN5GyVbCQaQ9nCqOwWFeCI/HM6BDbjRG+vm/DiTOCGgNds9PdbI/xzUMHzrxsJxiZEuMfNQWI6zw4CpAVGFWcJ4EMvlwPoFls49geQqTSm7klgqH2LrVRYML1gYATqPZQzNbxy2UXvl71Ip0sI1jpIUBYSu23oFGICM8MGEJTMMyVqwsg/Ie3ZyqQ51xd5m4ID+dvDKvI7/ybm3dVzKBJlrDJrCnFd1VsJMqmlQSMdcJiQrLO2CZumL5jPMNs6fmqG501jwDG+IXxT9MVwdq6D4MVt4yOSA8qlMSSaYTFAIZZU1pMi3cCjyeKHXb6769hmQpTnRy/pS4KDGG5FQSPDvEo18Cr+5s4SlYkvpHAeHSIo3LXmKkptpE1K8dUGFUZheYuYPiOkGi8wz2ryPVqH1+v+7GTrmE3nEM1kkP0joamAqOB8OzZVBgCQ3iCtT7Cla6k179ZcmIQysIvwLytMAqLdZ3FNmZGJYqTb8wA4TOhIRS3gbGojwmRVWkIjhUYW7IC2kbCAGYjUcRdpiBRcTYjWXy27EJ1MyBZFIFZD6XRcoSwuu7FzrpX2gSSprNlYJq6JFaFFRhdHwTSCLqjqN7fQOL+Ov6OwNT2zlCdnIoLUlC4KixUF33mvrR1gJfeBJ4sOTFqjgQaxjO0594EXmz4UTLHJVRRFByu7wJGlYarwhPrjPE0mMZLTxzZ5gh7zihilZ4oCxXplvsx4xaFhasqDN0SoaFb4izxUTiLf33owCN7CL47gl4rJLqnymj2pKsVEEJCWKxmVRMF6G1QqCZFAUQVRlcqDVVEXFeydAsavrMC4wtl8OmyC1lXBEum4jjDGdQ2A/CvutG0BbCsI6HhHBaDbGqyxpM1QPEb6qKwcH0QzKBtD2Lz3joyDzbwfXsFC9Xd01vAEB41gkKFUbdEYIrbRxg3tvB80YkrZwT13q4ExQyMR7UhXnO6LVWRGIdVYUJDUObdk4Jz16rAMADuFFr4+aoX1UoP2/EiKpnaDBgrNJpKExR1VXcBw1niRrYhAfXXK27E2dWmylS6t0xB0dUKDJWGxneERmFQWFR59JmrO980XJYZ5xAcAsWVCmNP12buSIGhyigw/BuryigwhGY1XkAskMLH920IeuOzOo0nmEbe5kdxyYGEIyzASB8qVMBiICe2Ei5iKZjHYsAAiBAJLIE0VnxJjNY8uHd/HfGHG/grbwsLdSrM7inKDHaZLTEAnpyguntbeQiNglPePsLzZAVPPlzDcaqCMhWGMG1N8SReFJc1qg9ntRyFhau6Juuq0Ki6EBi1TH2Il64oPuFMarWPQTAt/SvColmVKo26JCswGr+owvBvksU23tiC+NWSE6zN+CtdQ30s0BAUX7kDr5hRo/EQFNZrzHfeUgt85zLdEqf5JCBmnGM1Bse5Bpx0VaYSETIFjdBwQJ3Q2Bj4WkyBISBWYLifxTLxAnL+JN7c38SmPykxDIt7kUASaZsfvSUnvP4EltnAlDZCDktBqkwOK+EClkP5meJYgQl64sgsOxF+YINzyY6/CfQIzLkAU9k9hVrZBIdKo25KgdG1NjrELx1hPF7zYas1QnF8jPz2IRrDffx81YNzVxT14cFb0Fjdk+4JjxUWdU8CRGsbu6kKfr3oQD/XlKZkggPklqMuVCKFxLpSYQiKQiOuiQW/Sg+P/Sn8t0UHjrxxhE2XZVUZQuSrdOApt+EuteAtt2XvrXRA4ztXsWlYoQEW8Fjkk0JfvgEPzcympMiXZWrNbKkimZXCYlUZI5ZhPGNkUFwJxbxLuguehj8hbRxmQIRsOZZH1pdAbMMrQes6g2ACE2HfKYcl01bC7IjnsRjO4SHVJZgRV3Q/kEbeGcE6h64WHfhwyY6/DQ2w0Jw+Qn16MbPa/rmAo25JoVFQFKDSzjGGnTHesKDnT6I0OhBgsqMD7NUH+PShHbtFNi0toxOWzMmqOgRHgeGq6kOVSbR3UKwP8emaFy99SfRyDXR8CSR4fsocPNeO9zw4BOYtY2xT7WMUL+E3yy58agsgWWgipDGOqTJvAWOC4qt2Z8AQJrFSS9Jmqc+wyKdmSb8lBTfTbHVV1hhHYxuu/J2wcG8FRsGxAiPvEkXsuCLYXXZiKZKR/2YplkfNHUVs3YtttgSi5niExDfsgt82ASaUxcNQVoBZCqRR2vDD8cAmx1J+vO7Bg0DOAKZx8Ag0gkNgqntnqO3emEIyv5Ynp7hMVfD0oR0n2TryhGZ0gML2Ia4CKbywBdDWes07YFE3pW6JqwLDfZrZU2eMw1gRX6140C+28cgVRbrcnQFDcKzQzALf5tYtYKg0dEmMYyq5Bn664sYv1ryopyqSdjMolsDYhIYKQzWZgVFuy7O+U7Xh73a6mkIDHipPoWkY4xtmTrQC93U4LYGxVWWs8PA9YVGFUcWxAnMLmlgeR/YgmituaU4SspV4Hh1nGIlVNyr2oCiOthNWo6ztGKbgWIEhNJuBNHIrHpQe2uF6YJNzSYu+BBYaUwMWKzCEhq6K0IjLsgTCt5Rncor2YB+fOsI4XnZh2Bwhv3OEws6R7F8tOnAZzRsBMJuW/b1Z8GtVGAXkrpWKQ2BK7R282QjgNFrAMFvHMJKTw3VW16RxDddYcwux1gjR5paYuicFJlnt4+PNEP55yYUxD9GZrmsGTbULqokqikKjkFhXASZXE/dkdVVOQjJv1tjGEjBbgdG9gqLw8NlqCo0jmsOZLSAB7rJZo2EgPNoMILvqRsIbk8D4uwKzFC0g5I4hwX/TRQd+/HBTDshx3FNckiqMda3vXwgsBEbNCgsDZQbIpfExDugy7m3g1J9Ec2sq75hRPY6XcPXeMnZqQ0m73wWM9KDMXtQ8NBLP9CZgin0YK+ArewiZ5giH/hTytaGojKgLVcbiojiQFW9vz4AhPOKeqDICxxCHoaxUfZ+5oxLXaKwjKmMBhtD4qz34TXfkqbQxb85iE45iA65SE07THMU6HIUbs3OfrxuKIzUbZlhG3UYhsa6Eg8Htu4BReDyxPC5W3Yi6I1hLFKUS7I7mMNjwobDuRTCUlncrPPdE46ywacthjoHmjBhGXFIG98M51DZDSCw7UVxy4ocbXqPLHUhhoXlwieahYbeAmYtrxFUxc7KYBMms4UxO8CpZwctFBw4KLZQmpzJP02A7YTOIx+4Yav09CYC1ZmNds4M9ZEzLSnOTDU6OUewh3TfmiROdHUmtP9/wY5proJ2poZOsSIxDUAgHjX+X4MqguLMjKqPqogGwgNEYolFoSab01YYP2WJr5r4YHIvS1HoIqrGGU+nCU23BVW2KOSsNiJUbIDBUE6qNu2wExI5CDY5CdWb2fAX2XBXOfNOwXFPOgDuyLP5ZK8NGhdieNqq+zJ64vzHDXYnCJEsIRXJ4uuyCJ5jCerIoapLyJ1Gz+VGz+eAIZ7AWL2I5WsBiJA8qCPe0JQa7oawAsxjJ4SHbBgGm026klh2wLzrwnpsnENJi7wTGCg9h0diG8c0tM+s4tZ0TvHFGZTK/399DgWOf20cyhPXZg01M801kzWYm1ccKjMBBQEzjdJ9M+A33BRiFJt3ZwXkwg5+veVFrbGESyiIjVWEDDgKS7I5npsDQLc0Hv2EGxLU+fmoP4lfLTvQ57sC+k6XIx72axjYExlMzTMFxV5oGKEyzy21xTc5CHc5CDc4iXZVhjnwVjlwNDgGmBYcAQ2iaojSMXaxGiFiLcWSMlNsAxwCL6qLAJENpPOOFA2ZGtRIvoOONI73hQ9XmAzMkuqiVWBlLsdJtYCJGhkSQCMyDSBqJQBy1ZQeyy3a8t+SUIJhFPNpCy6IwVBorKLp/FzCahjPWYRZ1UBvg5ZIT1+Ec6ltmSj0+wdNQFq82fGib9RrCYo1h8lvTWcBshYWqQ1h05cmFQamLny86cZisYBwrolUfzgAhLFZoFBi6IzWNaQSizjYehbL4FzY5vXEELGk4AVFYuCowvmoHvpph3mobM6t0RGEYw4jKSNrdgLt0YwRHQMobkBAUe7YhppmTdTXqMvPA3BT7FJhCIInzZRc2UyWBaC1WwJ4nhtCmHxVHEOscgYhTeSpYjpdn6jJTGRMWUZhoFn1XGIFVJ7LLDrzPGZpQFkyzDWAOH4tLah09Bk3dk66ERoHh3ppJERi6I029GzvHeBHJ49mDTRwW26hxVnj7CIPmCK9W3XgazaOizUwza5K4xgKMZloEx+qmuE+xqtzewUt3HG9cETmSwjiEKbbVJanK6DvragUm3OLgeR3/uOLGlxt+JKo9REw1koxKu90WpWEco8Hw/KqwaEDM59vGuk0LzryhLgoLV2v2RGioNNpfuq0wtzve66ky2t44jlY9sJkxz2a8gGNHCD5HECVXBBvS4S5iJV7GSqKC1XjpFjRLkTweRnJYjOZhi2YxsvlgX7QhumSXkwMPzFT7OwFDcLROYwWG78Q17Z7OUnDGN0yjf7Xmw6MNP7YG+xLzEJrH2QYuf3QPR+UeiiY0dE2iNFQcMyXXVV2SuilRmd5EelfDQhtfrbgxybdw6ImjXGwj3h2LivBaEgWGCqOm0KjS6Jotd/G1LYBfr3jQy9YRMms37wKGbQQ2LOeN8DB2obrMgCm24X7LOnAXOwINwZmZJd1WYDSG+TZgVpMlTFwRjDcDWI3nsZ4owhfNY2cziMCGFzl/XEYoVmPfDgxhWYwWEA0kJXbJLm3Cse7Gw7ChLlQZ2kLn+KkoS/v4iax3KY0Cw1Wh0XdUH2ZUDTOrquyf47g5wieLDlzECrO2Q2PnyAiAN4NoDfaNLvjIGAVl3UZBse75ToHhqq6JqvSxJ4brYFoGrA4iOaR7EzlsR1joutT4rLDctSaaW3Jm/L8uOnEaSM0Uhm6IcY+6JQ2YQzU2MW9boNoXgDwcg+C4Z7kr5il1QSMgrkL7LZvBIorTMAJgthBy3NfBYFhjGEKjPSaCxGzKnqpgLV3F2WZAzlutJStYT5aRYtPRGULW5kMslME6u97xkigL1YW2QoBMM1wTJ/jyKHmisC87MFh24r4jgEVO+5lZlChM5+QpCMu8qUviSki+ixEiCY73z3GdLON61Y0zzqBMTsS2ert4s+LBQaqKvGV0glVjKygKiRUYjW24premGOebMvrQrg+wRzBrfaTFbd3AQmioMHeBMnvXGmGXV44sOfEZU3ZWgptbAopmVwqPARAhetsClT58pe4t85a68JZ7As1dwPCdQmMNgK17QkJYnIx1zAYlVwGI2VOmjmtOCLjjWEvVQGiqHDZzBFC3+eCLFrCWKN+CRaFRcOiS2HvaiGRRd4YRXnGhvOqWI7VLkRz4O6H5zsAoPL8NGiswW1tTfL7hw4UtKK6pNDlBYXKCy2QZr1bc6DFTMgfO2fhkPafIot/2oWRIBONdwBCocnsbr10RvOZUWamNUbo6UxVVFwWG0KibmoFipuGx9rYcaeFNWL9c98mwFt9pViUpuKk23wUYf5nVYkOBfOXeDBhVG+tqVR4rJMK4kWAAACAASURBVNa9AuOSTIrpt5ExKTC+ZEUq6hlfCis8PJeqohNIw273S+FuM1b8VmAUpqVwFu5wBiUmJ6turK845X6ZO4GhyqhZXZOCosGwuiFd7wLICs1lpYfX9zZwkSyjtn0o8Ux/sI9Xaz48C2ZQ0w74ztEMFgKjamNVFXVZfCfBcH8XB4my3C3TqXSxG8ujwOO8/d2ZWd2RAmONaRjHRFsjZBtDfO4I41+XXdhJlCQWIijz6bgR12whXKcCDWdgEBAqjKqM7lVdCAn3alY3RWjujGnMwJjAUF1ohISmz1SXSLSAV6tehIJZrFGBkhV0PTFsEhhHCOsc+eSYBGdrLKbqcqM2RSS8ceRW3RgsOcHeEednliN5o17DwJgxTPf0GdTUPREQ3RMaBeYuQO56J25p7wyN/XN8FuP/gzzYq/XFLTEFf1Tg5UXrEgDLWMWuUTFWWFRpFBLrqsDQ/bQbI7zZ8ONZNI/tbA1bhRbSZqyj8Q5BsSqMFRxVG4LD2yP++0MHHvuSYFxjzaYUHMM1saYzesstKSR0S7O9BRKFhauv0p/FNgqM1WWpm3KyTpOuQdVFQeHKd/ZcE4VIHh8vu+HhEdtMA65EGS13DLFNP+qs/Epcw9jmxjZSVYGHMYwCsxwvousMI8ODcMtOvO+JSnV4mee7tcgXyd8NDFVGIVLFUbXR9S5Q9J2m4fWDR2juneFzWwAv3FE0OTaxe4bG7hm+cYbxaN2HvpyyPJLKcMFsXBIYq1mB4Z7QSBA83Jf2w5c2P/rlDi59SWRMYDRIpltSSOZXVZtYZweDYgu/XnZJ66FQHyDe2bkFjeGOGAjfAEOlUbUJiMoMJIZRYPyMa0yzAkOFUUC+DRhxTRkOX3HmpiWQWOFhOt4PZvBizQdnsoqNdB2+eEm61A2bH9lACqsWUBQaAxim1zexjT1exGTdJ7BsrrqxyEFyCywKzQKVhHAQDN0rLFz5TjMnXRUMhYfvrW5K3RLHP5k1nVZ7eL3mwVWsgMbkBKXdU2wN9/HZqgenyTIKDIA5/mnGNHJSgYfp3uGqFKDM1hSdzg6+2AzKMZhtppOljgS/RuB8gHR/H6keazhqN0Gxqg/BybS28Y3Nj99Qkks3abqm31QZI1PiyAT7UhaVqW8hWN+CvzoQ5eCqpmqiysJVgSEsCpKCw1UVhv+wm3RDloqwPdfAZrZuWkM699N1Pxy8hyZdQzxWRNkdw9a6H6F4CescKk9Vb7klFvBoawm+r2E1WUM+mEF91S1nsO9zDnhW5GPNpoSlSBGL4YKhMP3za4HmLmAUGv5GI1gKiq7vBMZsKbR3T/FpOCc3Ix1V+zJvk5+cyDFcuqsdnnMyR0F1hIKZ028DRtwTp/zCWXzujslNn6ehjMQydEnZ4bcDo+pDYGLdCZ5y1nfJiYtoHjE2POcqxPPAKDjhxuhOYAK1oYCjUFjVhtDQ9DcrMKo+hIUqwmeFhm7InjfcEdXm080QtmwBcV22dA35SB45dwzTDb8c1VVgCI0aIbHaWrKGPV7itOZCftUtR0yWZ20E9qAMaLhKDENgaAqEqo1Cou/1mYAoLFz5rKrDVdVGXVN1eo7R1j7+ifO+7hi6W1OBpru1j9ebQbzwJVHn4Ln1PNRvAUbdUnZrimG1j5+u+zCu9DBMltCt9sQ1/TZgtEclStPfxVahiX9e8eBLZwTsWzEgVmg0jqELUlCiTXbDt0FgFA6FgApD1VHlUVh0VaXR1QqM7gkLQbECI+AQmHwLgWxDRk37rpgo0Ua6hlogg7w9jLE9hDULJISFQNE2UvWZrSaqcMbL2NsMwrviQGzVjaVw3tJ3Koq6EBb2ohZ6Z1cCC4HhnrDMA2N1WQoPIZk3K0RWgLivHjzCRW2AN8sunGZqKO+diZ0wk/pgDUf5pvSjdLJPVku6rWrDdT6LKvUneBZI42tnGNX6AJNURQbPMwNmVFNxS3RNhnu62yVRZYqtEX5hC+BXKx60Sh1EzdSbwTHBMaDhaoCi4KjCKByERoFRkLgqLNaVf0tAuKpZgVG1UTfF1ZFvwc6ToKkqPl9yoRTMwp5pYCNTR9+XRHEzhJY3Ic+qKtZ1Xl2SoQIyNh+q7E7bg2YgXAFVZiVeEWDokkRhBhfPbwHTPbuCmCV7IkgERd0TgZqHhc/vAobvGQBX98/xKprHc5sf0/Y2yvsXqI2P8YUvKeezB7yYUU9eUm0Y75j1GSswGvhqLEO1mRRack3IcaEpd//KQTsBxgDl24ChwhAKjkW89ibwLysenEbziFqKft8GjMQzjGlMpSEQqi6/CzDz7kl6TNb2gblXYLLxstygEY0Wjapwpo5dumZ7GMVIYRa/WGHh3grMRqqGmj8NO4elVl1y1RnTb/ac2KhknENlUbe0MHj0At3zK7ROn6J99gzdi2sxQkJTdVHVUVisAM3DI4CYVV91S7qOhlO8WffhhSuG/vaRuKbO+Fh6QxeJkgTJbGpaASE4NH1nBUZc09YUtcGeXET0lSuKfq4O3iyR2T6Umo2RMemoBFsMhuokOqwEM4vaFSM003gR/2PJiU9cYWRbIyTMtPwmBeeMjWGqNOKWmtszt8R/eIJyl1F5CJTCoS6JqyoPFYbKoi6JbkhVRxWH7yqRPL5ZcsHNim++BX+6hokziupmCDEehMs0sJlpitnSDROUKtbSdbF1cyi96Y4gtuxAgXO7kTRWODtDYFi/SRrAKDQGMBfXAkvn/OotYFRdFBAFSJ+53gWMNZbRmKYxvUBz/wLPc028uL+Ji2QFDbqd/XM8ytXxyZoXO50dlM0uONVFTV2Rrlqz0VgmNzqQG7G+3vBjVGzjwp9EmdmPZc7GKOrdAKOgaAbF05b9QkOumv8Fq76cG54Dhs3NeJuKNJ65JgWGCkNl4T8+17uAUcX5NmD4GwHR+IWQqOuyAjP0p/F01StHWDayDaSjRXTtYbTsYXjZe8reAENwFJrVGTAV+OJ5lG0+bK+5YXMFsRzPYy1ZlqrxCus1yZooDIGRGGb46AX6ly8ElHcBQ0hoqjqERE0VxwqNuqb5OIbPPKXQ3T3Dz70JXK/7sNscCSDd4T5eOUJ47oqiNT5GhTGOqSzqmhQeq5tScHjEpdrfxRtPHE9jBbSTJRxn62DqbaTY2rw0gFGVUVfFNdmboNQc4mf2AP5x1Y29VEVqOIxvVGEIlSqTVWEirR2Em9viltQlKRxUlXl4VGn4t4RBFUZB4jsFRX8nRLNYJtfEkTuOfabU+RZs+Sa6kTyqjgia7hgckpLfBsaAxlAXqsxquopMJIPKhgfbG1585I1iPVXCWqqC1VQNAozpkphm05UtDB49F2B6j54brujRc3CvmZMGwwqLVXEUFqva8J0awVFoFCICw8HzzuQUv1j344U3gdr+Bcr75zipD/Dyw1VcFFoS7ygw6ooMt8R0+7byqOpktw9xlGvgG3sQ5eYWjn0JVHsTcUtUIpoGwrqquhgrLxjgVflZ/L8PNvEkkJavutwu+N24sJlrMmFRYKguVBuNaQjHXdAoUOqKrLAoHAqLqg4h4m/+Ug+PPQnsuOPYYJ2m0MZRMIO0O46WL2n0nGRAqyXKQnVR97SWbUhVeCVTw4gHBDf9CC3a5P4ZW6aCtVQZq8mquKXVhFGvYSxDWxhevsTg8csZNITluwCjqkM43gXMfCAs0EwNlanuX+Cy1MUnqx48K3aMoy2sCrNyaQ9iNNgT5dGpPlUZhUjVhrDM9uNjtHq7+NwRwnWmimahia1SRxTmuwEzRqI3xjhXx7+suPCFI4Ts3EQfvymlruwuYAiNuiPurc/zKvMuYAgQAaGaKDAETqERYHJNPLGH0QhlYTfd14Ujgqg7jjqbj+w5Fdtw5BkLtWawEBoCtpFrwZutY9cRQmndg1WbFxtJBspFrKcr4pKMGOamZrMUr2CBLmn4+CUEHLqni+fomXUZVZmZujDGOb9C+/QpOmfP0D59htaJAYyqjaqLPhMaVRlxSQeXojBUmf7eOT4PZ/FoxY3j3gSV6QUGkxP5rsHjWEECYisgCof1HWHRZ66sGF8mSvjVhh8cfThIVZAf7M064LxRyzB1UVoBNib6Uv1dFNrb+PWGH79e80l6LYfmeD5KPj42QbwzQbQ9RoxxTHsMdUdWhSE0+qyxzV3A8J1VYRQQwqEuiXuFSKEJZxt4ueFHLJwXdeHz1BFB0hOXYJjAOLIcBSUwOgrKtQlbriHQVFl53/CjsOrGSjCFzXQFG6mKZFcMdtlWoGuSsQm6uEQJC1uXL2E1iWnOr8F0W20GDot7BIawnD2TzIrZVcdsLRAOKzC6n49vZgAdXmJv6wC/erCJy2Aa/fEJqoeXojyfLjow5XmkuVjGCsdde45R8HzUOJjB40wNu4kSOp0xWOBTleGqvSajScnZYaOFQPVIdPfwIpTDf19y4SxVRZTvzGwq3t1FrDMRSLgqMISGpm5IgVGV0fdWaFSJ1F1ZoVAwuN5lSVZ5bUH4+GWWYgfZVBV9TwIlTxy5ZAVsXEqH2zI3LEW/XBO2bB0b2TqO3XGEbCGUNoJYj5fMop6lIpyqShxD97SUKKEUSGBh9PjVDBjdExqF5VadxgSGkGj6TaWhAmn2pJBwtQbG+t4a1zDVZkHvE3avV1w4KrRQm16gu30oh+9fOCPojA4kAOY4qM4Q3wWKvqMK8TBdgh/UCKQxyDdxGi++ExgjczKAUWgS/X3s5dv4l1UP3vhSSAlERuqd6O2BRljuAsYKDSGxmroghWYeGP1dYbGqjULDd7RssoorAsNAuNBGNV5GlkeJ3THEzYaldLtzTKuNFoMVGD+H6B1hJDYCiNvD2ExpFfgOYKguyRL2HCEDGIJiNVUcBWemMBdGYGyt1xAYjWcIiIJxFyz8TeMaqgzTbRbzmG5/FsxIljRh24Bjnrx+lbM0qQp4wwSzpnloFCCrW9I9Lweo5hsYF1o4CKblmlim3qzh3M6aOD9j9J1mrYT+PqrtMX65GcJv1nxoNLbFDVFlqDBWU3B0peKomqhLIhg0VRJ9VkD0vYJkhUP3XBUWAlKLl/BoMwiPWbPpRPLweBPYc8cRyLfg5kgoK8KSWt8Ghr0ojkVkHGF01rxweBKw80iL2Tow2gdMqStYTlWxmq4hGcnhYM2Dhe0nr6E2D40Cw1X2j15IQKzpN1cCQ5dEaBQSrvqsAOlqdU+ERgp60wtM+7v4bMOHzzmnyzrM3hl+FivgxaoH24PdGSyERM9F3QWMKg1XfsPyKFFGtdrD01hx5pIUGCNr4iE6nokiSEazkm4p3ZmIurC3dJyqId7bM4p7c8BY4eGewBAUQqGxDQHiOwVCVYd/o+/0v+GzxjQERPdc+Uxw3JU+BuEcTt0xURdPoY1BIA2XJ4GxLwUv6zYmMKoq1pUd724gBTeTizUfVkM5yaqoRKJGmTpsmZrEMktJIwDu+hKYPtzEwsgCDMFRt0SVYSBMULYevxRjcMyajabgGs8oMKI0ltaCVXHmgZlXm9reKZ5n67hetOOi2Jbhq87OEX5mD+NZrIAWWwsyLmGMTFBxFJiyNfA1m5hUGt5Zs5Uso18fYDeSQ7+9LdAoMFoxliCYV8xuHRrQDKYyDnGSrOD/XvHgtTeJbIcnMPeQ+C3AGLEMVWZbgLHGOFZQVGX0HUGxKo2AYRl/UKWhojArOgikseNLwVnsIFhooxfMIOmOYRDJS9pNYERlzOFz6UGZYxK8GrbpicvtDOnNEGy8rTxtwKLui8q0kalhlTFSuo4D3pPnimBh8PQ1tp9+jJ2nH4vSKDBMtedNYdHUu3NxbSiMmT2J4ojqXM1U5y53RVgIE9WmcfgItaNzVA/P0N07xi/cEbxwhrE33Ef18BHOqgN8uuLGaWtbnovTcxSmZyjunRpuyjx5aVyEdHOfDXtSpfEpCrUBLqM51Mpt7OdryI9uAt5Z8DucIrN1gMzWIdLDA6QGUyQHUwxLXfxm3Ydf2gLymWYp2JkxjMYyusa7e6BF2wyIJwg3qTQ7s6BY3ZOuwZrhphQYrgoRVwXEqizyrtSFs9zDE1dMIOG7WK6Jtj+FFr8cmyjDRSUyYx2tDM8KfvkWouxqOyPYXfdhjV/b5SkF80CdqgxXuqa1bB2VUA4nq17EOXFnBWYGC13Qk1fYevpaVis4fE/jO1WaWQBMWEzTTEpXBspMwVVpboC5RP34kVjj5BK7kyP8YsWFJ9G8xDi96YXMunziCKNPN3NwjqIJTHnfjG0st0to85LzNAQmt3OMSSCJvXoPe8kiKubEnmZMMqF3BzCEptIe45/YvebX4uSzhvtI9fcl6FVQdI1390GLtnffCQxhUVNAFBh1XwoNQaDi0KxuiYPlHDR/4YqiGS+Bz5lMHTV+48oRQYQfELMMn88Dw6owA+SaPYzBul/OIrmyTcmqNN5RaPi8nqnhwhnB0BaEPV7GwtaVoS5UGFUZcUePDSissMzvVXEUGK7fBkzz9DYwHQ5jHT1G7fACtaML1A8uUD+6xHWuIRcIPaoNUDt4hL3eBC9tATyRAPgU5YNzlPbPUJ4aa2nvVIp8TKlv2ZizwifINvq4jGSwnatiUu0hNzdozvYB1cWqMAQm29/Hy1AW/2OZABeRNbMlhcS6KjCxzp4AQ5UhBHRJagoFoVEwFBgFiK6JvxESdVFWcLyVvnwY/pPNEErpmigR14ovCRbu6LIIG+MdFvgUGK5UGTYpx74k2vYQQragxCzW9FthobqwOVmMFXG64kHBn4I9VcPC6PpTjK8+xeTqU4yffTKDZvvZxxg9+1jURBVlHhg+KzTqphSa1vkztC6uxJrnz0Dju7apMuKqzKyqfvwYtAbt4BG2eLCfvSZ7CPvDKWpHlzjhRYz8Xzp7T1SW6TkqhxeGe9o/A6EpTI5l5V5sfGIcW9k5xCiex06xIdN5pe3DW51v3prFiwKyoyMxgkNgaAe5Jv6VQ1XuOErtMZLsOZl2FzAEh9AYSmMU9RQcdUdcCQYhsSrOLXju6HaLe+L3Hnjyc82HVLYhcLSSFdSpMN4kvKYiKTCERo3QBHNNHDojcqvmhi8pcc48MKI0PKmQrmHqjmO64kEwVUUunCcwn9wJzOjpa8MlsU5juiAFpk9QTJN3FjdlBaZ5cYXm+RUa58/ECE33lDUbY+ZGg+LG8VPUj56icfQUzQOm3s9w3p7ItWdPwzl0ebry6DGu4kU57cjMitCUDy+Qn56Z0Jwiv3uM4v7pzCq756IwDICLzT6mmQq2mR7Wh8bFR+aJy7uAYSyTHkxRbe3gM2cEb5wRdKtDI76ZA8bIlAyXNA+MBr1Rs8gnz5J6G41KAxhjYk/VRdTmW4CppWv42hZEhK2DSh+jSAENTwLDWFHiG1UYa5bFd65yD+1EGV13DGV+4SRZgZdAcc7GUuATJco1kY6XcGoLYMBsLNfEeM2HhdHVbWBmKvP0NZhBqTFTEkV58hL9Jy/Re/ISXcYxluCYaqPuSTIoKgxnbVRdqDBMw8WMFkPr+AkIDGGZ2eET6Wo/qw3w1BHGUX2A6vQC49EBnvObhnw+PEPt8EzW8vQMJYKydyLBMGGiwlT2LlCanBnB7+gQ41QZ9UYf55EM6tv7KI55vZpxYC43OoKauCYOX9FNDQ/ku93PXTEcpWtIbB3eUpibtNoIehn4xjqsBu8ias7NsIWgIxHc86Acr8EXa47kpKWeQNAR0KDpmuieCBKNrslbG2ISyePaEUaYbqfSx14gLcDUsk0ByAoM97PnYgdHPEbjCCPrioq6aCZlBYYpOOeFe4EMLtZ8CCfKiPN/uO4YFravPhF3RJdktR26J9O2qTZUmSev0HtqWJfAmNBQbe5yT3RTGtPoqkEwnxkIN0+eoHn8bGaEpnbwGLXpJRpHl7gotHHtS2C4fYT6/hm67RGO3RGMt6eoH5yhcXCG2tR0UVNTeQSYM5R2z1FgpjQ+Q358ikaxIycY+qkiduo9A5idKQrbBIejn8fIExwzvSYsydERpvy/wZPAq0AaCdNVqcuiWyI06p5uANqdDVpJwW8Gzc2oBEcmdJKPN5zruIRM8NWGMitsBYbQEJinvqRc38/gl9Ds+pLoehKIMzuaG85SYOiWGBBPnBH4eMN3OCcxjcY41rSbwHAY63gzhB1nFM5sU9LwWLyEhTFjmGefzEximatPsXP9KXaeG7b1zMiW+r8DMFQbVZx5WBQaKzAzdZkB80hGPvv7Z7jk19+iBRm+IkTpWg+PY3m09k9Rn55JsFw9uACNsQ3VheMSN8AQmlPpF10F0mi3hjjKVFDZOYR8hlnOQxnAEBoaodEguN6Z4CBawGUoK5kTU24CM0vBLZmTFRiqiqTirBDPgLm5HEAHzI1jucbRFcJCcOT8tplqzxTGPG35sScuSkF4coU2tj0JVEM58GyUAjK/Eox6rISsK4Yl8wSkwqKrpt52VpKjBZyvepGKleBNVtF2ReWm0IXx889msBAcKzDbzz8FbevZxyA0g6uP0X/2eqYyojam8mhgrKBYYdG4RtyRJe0WdTl5gtbJlSiMFZqmpY1wyBsW1r04rw3QPLhA7fASvXgR+/WhpN41ExQNhg2XdIYyXdLuOYp0S1Sb3XO001Wc5hrg3b+d3q4Ev3k55805GwbJBjBUGhbyCEWut4fdVBXdVBXTXAtJS71GlYaBsKqMruxqcwTiNjjGFSQ84qJDWQY45gkEy+E4DYI1owrUt5CoDvCGR0tiRXjrW2gnK5JSc7pO02mm2gyQb0FT6mIrnIMnlJUbqJgNERTGOVZgeIyFNZkTZ1R6TZ5MAyVPAoVQTk5aLkyef4bda8PUJTFrYva0RViefyqgEJbvAswsMDYrwlQXwjPvngiP1GZklvh6Bo26p9bxzRmozsEjPEtW8MwZwXjrEPWDS9QGUxwmymhPzlA/vBRlIShUGa5iJjCEhUaAWNWVT+rkWzgutJGXTMqA5BYwVJntY0NlBlPs5Zoo55p4HC0gx4DYkkkRmruAobrI7Aybla0dOULLj5PylnBesqwfsZKLmMNZvO+M4CMPv4KWwnuOMCLmBN8MnMYImXIPv1xyoZKuwdcYgZ9WjIeyMnV3q14zB0yo1EXPl8RGvCQ3MVBNFJib9LsjaXc+UcHFug+VYAbORBn7az4E2MDMNbGw+/wN9kyzAkOXxAyKQTFrNbThnMIMnhpxzfDxTTFPYxkrOPpuHhp1VZ2za7RPr9A8eTazlplyG9XgS2wdPcZLbxxP+b+o6SOxfr6FJ+U+KgeX4NknuiNxSwIM3ZIR/Bpp9glKeycoTy/QLnWwV2jjMpxHc3Qkt0oUeVsW4ZGrR3ir+bFcScJUOzM6lM8XVrINufa10R4jZVaEFZa7gGFQ+w82H3684cPfr7rxgwc2/M3iJv7kJw/xb/7Dn+IvPljB7//Fj/CTTX44gnf884siKXzgCgtMVCaFhSsVppxr4V+W3ciUugg2t+Vb3654SdSErssKjVVhEvyynScht2eyxqJpt678VDMvP+LHUw99KUzXvAhl6qh4E+gEMwIkY5uFvRefQ43wqNpw1YxJQdq+/sRQm6evxEWxTrNlwqIVYK7qlhQardFYV3VThKZ9xhMLxqkFjW+0C87UW0Yijh7joDPGC1cEx92xqAp7SBxLZIe7Yd6UpQ3N6v4pKgcnYuXpMWil/SMUdo9RGu7hIFvDIFfHWbGFwi6vIjlGcfdEjPvczuFMYRjLtDoTTFjvyDbAzzBzBEJjHMJidU18pvF2z3ueMOypEpaDSTz0xbDGq9uDafzlh6v4h3UvfrTslOvm7/tieN8ZhC1ZQKQxgCNTRqx1uzLsr2+hk6ziy3UfErUh0tUBLrwJODN1+MucG2Z6PoK/ysLfEN6y4ZY81QEa8RJS/HpJJD9TFsJCqKROU2rJTaCZdBknGz4MfQn4c3WMOVDOA3V5Tu3VDWB2X3wOw95g94VhVB1Co7BwZRA8vP4Ew2evwexKjKm3WbPRVsLvCsxMaSzDWQqMNik5CtE7vMSjdBXXrggm42OBhl+Ku+TNA7wtwrw+1hibYOZ0IlbePwatRJMC3xHGxSa22ts4iubRGk0FGgLD37nmx0cojE9m0BSGB3iUrCBd6mKaqSM7mM5+0+DXqjYCTW8iH+7i5dP8lPJ6LI+VcAb33FH84Q/+s4Dzp//5IT5whuQbBLwdQgNhfhyDLkkLe1yDdEFMqe1hhGtDlIod7HmTcjogUGP6bQCj0HjLZhBcHWDXl4KHtzDEiqJChIUmxUCJY5rybYVeJIvzNQ+i2RpywSRq4RwYBGsWtTB99SUmrz5/y6yuSlVn5/ln2BI39TGoNjuE5unHGNGoNmbvSQNgKgqVRFfdW5WGewJzE888k2eOgbYtFwWoa9rZPcXVZgBXmSoY21CReLEhi3FUIvk788YsaTkcMnuiuyJARmzDtkKjN8EF537LHexVuiiZ6nKjMifI7xgmscz2MU7yLdTyLeynaih2d2cKQ1Cs0IjaUHX6+/K/4Cjv3evvIdnj5N5YgPm3f/R93PfE8Aff/3sZfeTwVlzqNky1dxCusz5jFPdmbqm+JdfOPuX3Kpvb6OSaaPpScBW7CNX5tzsI1llFtirNAKFiB1NnRK4tYxWXqqLA6N7LL7rk6zh0BDF2ReQyxy4vvDaP6mpgvLD/6gtMXpv26nOMTftWYK4/+U7AaKakivMuYPheg2Cu4qYswGijUobIj5/gtLGFa0cIh61tmadp7hzhKFVBn99IMO/hE9fEeRuORUwvjANyWiHePxMVydT64p6OMlVUtw9n6kJoeFuWAsM1u3OCbnuMg3AOg3QN7fYYmdHRDBS6J3VLN+sBop09xHvMoKbG2t3FWjSPHy458IEjhPftQfmqbIrNy9YE8dauWLjGwp4xW0N1IXTxxghPfCkcRfIItnawnSgjEc2LSoTqnO67DQzdkrvcRy9Rll7TUqwooFhjRbdWXAAAEJxJREFUGwXGWWqjmijifN2DfKaCGG/nDKTk+hKFhevC9NVX2P34S0xor7/AzsvPsfPyDe4E5loV5rcDo2pDWFRxuJ9XF30mNOqa2jzjbQIjszbmUd22XOBoTO3xoxgs6G2ZrqjWGqHS35VmJl2SAcxjKQJW9y9R2X8kxvqMkUWdIz2aItoeYVJoYrs3MVoLGsvMAcM6TnF0hGexItqZOiblPjI7J6IyhOVOYIYHiPWmiBGYvrEme3vyzaK/W7TL53EIDGOaFP+uxWKfCUx9G7G2MTMszcvOGPHqEC+dUfSyDWlo7kULcCfKYFX4LoUhMPztxJ+CJ5KHLVOfBcXa0CQwjGE85S5O3VHsuiLwVzpoO8PI8mu55a7MDHPKj7Zw8Opr7Js2ff1T7L38CuPrz7H7/HPsPf9CbHL1BjSm29YiH7vb0jpgG8FsVjKu0b1CY82SNBC2rj1O8l3QXqJ7/gLtUyPN5qqmtZrOiTHdtzM5xZU3jhe5ulSLCQnTVYJyY49R2+dU340pOFzLe+eShVQbQ1ymy9JaKI2PwK+0lCdnt8wYlTjBGUvmmTpO03Wkt49FYSSTMqFReNJDKs6BqSycrzmUPcFY9KdEYfihDALD5+TwCJHuFNEuu91jqfJGuxOEurtiEU781Yb43BlFgTMwjRHGkbxclMg6jQIzU5nqCN7KAOliF3v2MNbZTORxWsu4hCoNh8iLyQoerfvRjhXgjZdkVIL1HMec3QJGwSE0+y++nJmCs3tNcIwWggbEMhKhAbC5zgNjVRgrKLoXleHxFhkBfYHOuZFmKywKEGs0Cgzd1EljiGubH6edHZmz4QA4g0UCYwyb3wBTn/K+YYvS7NFNPTL/USc4TOQx7u6gzCrxO4BhUa/VnqBV6OA4VkKVN0JwtJOp9x3A0A0l+6wKcyjLBKa/j6VgGmuRnMQy/Mrrj9e9SA6PEe0RGKMHxeovP8gR6kwQZuOyt4diuYePnREkWcCr9DEM5eAudSUwZuxCWNT47K8Zhb1yOAcepdUgV1NvAYZjFJU+jr1JmaqLcxjLEUGV99KUu3CUureguQUMQVGbvvwK87b/gopzk3oTHkm9vyMwCsj8qm6Ja//SCJS7PKFw9vyWwlBlCIx0uU+eYnB4iYtUFYehDCb8FM/JU7kQkaOXzUMDFkJChWkcPEb94DGqc9CwoBfvjVFrD3EdL8onmY2z3W8rDAt7rAAzA+qx9V/qImUZiZiHJjmgK+Ipg12khlOkhvvyyZ4fLjvx9ysucU1UmD/4/n/CYqQAT3lgFAB5NNe8Zy/EO2p6E0R422ehJYNT8ea21GHakbz0joxM6gYWTvuJ0tRGqCSrCKZ4GK0iczbqigiNApNjEXPFg51AWqbxJp4EfNW+VI6dlf4cMK9/CnVFVJgZMK++Bt2V1aYvvxRgCMpMYdigZGXYzJI03dZndUtUGavdhuY5Bo+v0b9kRnWF3qNn6MktEi9uQUOl0eFyZkNMubvnz1EptnFe6qB78hSNg0u5MpW/q6pwJTDz0GjrID3cRXp7D4exHLZ5pesu54XPZ3bLPe2eSyMzW+njmr0ZExhmUrQbtWE1eB+p4S4S/QlSwz3YczW85wrh3//Vj/Ef/+59+cg6g1/JmAIZ/NgWwE/sAazHsgiV20j1xoi0Rwi3thDt7mCUqcrlS5H2GOViB7VYSYp5CoyCoirDuWLWT3jFB93RrMVgLfCVu3Im+3zFjUy+hQq/xJasws3YhsW86kCAITi0hYPfAZiDV1SdL7DPYt9zwz1JTPP8s1ldRpqW15/OnjWmIThWeG6AeYHB4+cYPLlG//EVepfPxLoXPJHwfBbTqHtSYKgyeh6Kd+nxi7PHWwdgD4rjl+zVtI+vBBqFZR4YdsUJTXFyjHh3hEZ7C4fFlvHthHcAw5EJZk2cb3nMj3CwgMcOtwKzRfdkDGRlRlME6h2sxLP4wBvBvUAMm+kS/vahDR86w/Lhh/VoHt//YEXmUvhJZFuigPdsXvzl+w/wNw/WcM8bgT1dQrA5wDRRwGU4h0h3F+1sE/lEGWE5QMd6DS8DMJRFgQnWRwKKqss8MOxsh4sdHDoimAbSUqDreeIImee36e4IDGeIXZU+3LXhDTBUmVsxjCWOuVGZr2BAQ6X5HJMrFvY+w/j6DXZoV59h9Ixqw6Lex9i5fo2da9ZsXmPrGavDL2cqcwPMyzlgrtB9xINyVxIEayB84544YH6F9gkzKdNOrlDu7uJJOIftw8dgH4q3XVIlmodPDGUxYxhCQrdEkzEKGaV4hFR/gsLWFMf8FtPoSGZpymYPSmZq2MBkIGyOTNAV9VJV7DZGyM2alkdgI5MKxVs4P/KG8Gcf3McPV2xwZsuItYdItEf44x+9h//tP3wPv/+9P8ZaMIq/+GBRCnfBShfOTAmLgSi+96Mf40crG3Bmyrjvi+IfXEFsr7ow8kThqnblPuFkti7xDWMcY+jcAEbBYaV3M8Ngty2/EyCFhq6Jw1eVVFWqubliF7FgFp1IQSrEnhIVpg9n2XBJVBdXdYCFg49/BjVCM7NXX89imBtgblzUTSD8uWRVzKx2rt5g+9lnhs2AeY3t61fYunqJrae020pjBMSmyjxmCs7U2yj29R8ZWRMzJ82eqDQ38BhZVOuY57yvkU3X8DzbQPfkCq2jpzIszdWqMDNICIoJD2dv6LZYKNupDnDQGEmzUpuW1pXpNRWGkKQaI9QaIxR2+NUW40JqHmG5543h97//Q/zPf/g9xFs9+Ip1rIRToh7vb/rwe9/7U/wv//vv4X/9/f8Df/hXf4X/6ff+Pf7jD9/Hn7+/iD/5yUf40YoNf/CXP8Dv/8UP8Mf/8BH+z7//AH/y/iLGH6wg+N4i/n7DjVyhAX+pI8CEOrsISc3mRmEIjadEYFjB5Zww54hpBjQEhuOcU09MUm5PdQvbjihSebYLOHg+lCxLXRFh+VZg7oLEGgRrFrX34ktMrg1oCMzMxC19LEqzfUVIvgWYS84Gv8Tg8hWGj1/L2n/0CrS3FeYGGAbBNKpN5+QKtaOnGMZLOOhP5VkPp1Fl1N4FDAPjLL/n1NrBFS86UnW5YzWGsk5lnIHzL3RB/PD5R54o/nbJjh+uOPFn7y/h3/5ff46/friKf9j04D17AO85QvjB/XX8u+/9Gf7dH/0x/vrD+/jTn3yAf/NHf4K/frCGpVBKbDWaxkaCh8vK8BZa8q0mftj0Y28CjUQRzmwF/lpPvu8U6UxgBUaVhnAYB/Fbs8qvFRhfbYgy/8dlD0mHOu5PYzdckL8lLAYwQ4FEYRFgDj/5Bkef/lxUZqYur38KxjaHpik8BEZBscKz++LLmcpQaQwXRfdktAuoKqNnhrLcrTCvQTUhHISGpsAoNPyNpuqidRmm2uKejp+JqtS3DnGeqqFvuiJ2fKkyqjRWYGauycykCA0La/v5Fo74/6HTy1vzNFQaVRiqDFNqDnizsrsYTMrng/npGsIT4IfSKy34am0E6j2EZRRzB/5yFz+4tyofPF/mp4HjOSxF+fGqOBL9sWRsvHKEKbU0MOWkAk9dTvCVK4ZYKIsP3SGEGgMwg7oBxnBLxmmFiagJr/lw5TsWdTFVpsEG5QDHviS8oaycNNjfCCBT6sNX5ZFes3nJSnF1KLGLQiMu6bsCo+BYV4LzNjAGNNuMaZ5+gu1nn0p8Y8Q4N30nhWf0jEda6JaujXiGQbCpOARGXRJXVRwNgrl2GRyzyMdRz6On6BXaeFLpy4ww02DOyfI3QlM/fPK2MeU2oeFFQ+XREa5iRTQZ+O4/uuWeOIylRnhYhWXA6yk0ZRhLTlzqcPn2FJntKZL8FCFbB8MjxNsTvO8MyTDXf3LHsJwqI9oZ4QNfGJntfaS2poh1dxFp7yJuVoejvX3kGtv4uSsGXySPH63YEaj1EOnszIAJy7EW4xAdoaFCEBiuVJabQHjbGJModTHYDGKTJwkSFQyjJdAtERY1H2ExgWHAK0GvVWEYy/BZTNWFasN4xjQqj2RWrA6zbvPiy7eAoVuyxjT6TOVhQGwU9qg4PCz3CgSGsYsBjELzwlCay1dGQU8qwS9mbopKo6bAdBjfnF6jvv8Ix9ECjgZTML6hyrCGQmgIjKoM95zyY32GcQyN8Qgn5qqdCco7J7OWAtVFJ/c0puEzVYD1l5/Y/UgzcLZ8+4lZUmab6fUBpPI7PJRyP7vTTFt5DHVD7tyt4X1vGInBGMmh0UKIsAfVP5D+U6S3j3ahi898KZm1/fMPlhBuDRHrjhFh/NLZRdg8cUlYmE4z0HVSXdhfojXNtWF0vevJCjxUmOpAPu/Hk5i+2hb89ZGsVBoC4zGN2ZK7MsAC4Tj+7BfilmawfPKNQDGDw5JBqdtiRkVlmTz/4i0jIAx+rSv3+rwtM8OMb15jdPVSgDGyJkLzEoMnzJwMuynqMRi+AcaqOla1IUR0V5XtY5yHcxhNL2fQ/H/tnUtPE2EUhvlr7o2BCCZqTEgUEQJCo2gpFCitUGjAQkvpFXoLsYCXRUkNC+PW+KNe85zpgaFhgXuafPlmJl1Nn7zn/hUVQYHCwLji8MxNFCaGUJkTGQi7ee7AhKHhOsjitjTyekap4pEy9AmbA0yoHWSAMV2+iJ6GX04rksoocXis9XJLI1Pv9Gzug8gHrZdRlrbihy2tl0+ULJ1otXSiTjKr3tKmYpmCHk++1cpB1RJ6lBIoH8TtYCPmoOo2YWBddMxdFxpazB/bitH1x3W2YiMmTAzQ40LYTfXbv/dxv2btn1FOnACkvgNMqWEIc3QrMAPRk4fcDgy7QwM44QVEgS9zizN8AUi/VO9RwAyAIQTHPIUTe0H0FAzKUbR0gNynCQPjSsPOczNT3y+V3y3pPFdRodO1EBtzA0ymKgOmCWAwP8DBDiwk4QCG+0HT5P4M30mWmhp+Na3kYU3UojBLNtfNqG4/mReUEDo2YvJg9Lneb+5qo9pWotjQo8mIxqYjShbrSvGs3FacaYQ+MBQwu6sZXcS3zPd4OD5pZixRbGqt2FLcTNj1aVj4JwCDYxsGZhGYDurWVwMo+F/8o4l16mWrMlCApb9oAV3M1gwYoGENActdgHFA7gqMQ+NK4+qCHzMITO3i2q8JQwMkYViC++vIKQwN1w6MqcxZT62vHbUa+zr4Qn9w105mwOx437Cri5spYHH1wczwI/ODO0SeGXaThOMbOL9tjU3NKVU61k7Dj1A7V6YfggMVqsW+mq9qdHJWsZ28FjL7iqT3NJ/e1/jCsilOotQwYCg2OjC0PlxGUzpNfjYIns6+V7LUsEOTDJhiy3wZAGCR9qfvhYww6gMkrGju2HYSdt4QRbumNWeFFGYxfxRAY2faBApzBczp779XwLjaANAN89RXm0FYKCOgLOyojd+72qAyAHPTn7kFmO51tRv/JgyNK40rTPkHEdXtjrArzcF5T5VvXf3s5pStBw3YxfOe5WMYxUCB3H/xSQXuHRh2Fr4MYXNYZbj2hUlibdc7ejI9r81K8wYw+EOWs+mrDNfxXEUzq5+UrjQ1sbSuN2tpbTXONBFLaK1QsxICs08rNFT1FWaj0NKfuWVVtvFJjvQiElW6Rn9NwxQGuChaAgvNVvStoDI8o3gZwBJAgOKgKkDFH2Z5c1Zsr3ZlkjBN0dyRmSVMkjvB7EO6/9y/gf94A/8AiLW62eI27PYAAAAASUVORK5CYII=;" parent="0vJlOstJJPzeJg9LQ7au-5" vertex="1">
          <mxGeometry x="5.368814192343605" y="189.10714285714286" width="224.63118580765638" height="139.58916900093374" as="geometry" />
        </mxCell>
        <mxCell id="0vJlOstJJPzeJg9LQ7au-1" value="" style="shape=image;verticalLabelPosition=bottom;labelBackgroundColor=#ffffff;verticalAlign=top;aspect=fixed;imageAspect=0;image=data:image/png,iVBORw0KGgoAAAANSUhEUgAAAIwAAABXCAYAAADWOa3SAAAgAElEQVR4Aay9Z3NkW3aeiR8zH2c0EYoYDYdBRVAh9gxtk2yS3VRTfV0ZeCTSe++990ggE0DCA4UyQLlr6rru2602dNKM9GV+yjvxrnNW4iALdft2xHxYsfc5iRtBqZ5+l937LPxs3YfjJSfq9S0kuxOkuxMkOtsoNPr46YoLl4EUUv09pDoTJNtjpDpjJNs7SLS237J4c4RofTizSG2AcLWPWGML3NN0H6gP8dwdw1NPAtFSFwObH85ESf4+WO4iUOqY1kKg3ESgXIe/XIOvSKvftkID65EsfrLqxGowBXuyBEeugW4wg39ccuLJihu2aB6uTA3OdHVmfNZ3jlQFNHuyPLPNRAl3mS1exFokJ8b9RqzwlunvXFfD2W+1lVBGfue6FEhhOZgW437Rn8QDb1x+5/uHvsQ7LImHviTue+NI2QN49N4SNhwBfOSO4h7NE0PR5sfikh21RRtW7T585IngI08UH3li+NAdxYfuyFv2gSsMqy3sVHq4vm/DsSeOYn8P6d4uMr1dpDo7OEyU8NV9G7ZzDcTbOzNYCIyagkNY4o0tWKFRYAhRzAISnyP1IXrpKr5Z9SJV6mIYziLiTyJogmJAY4JT7iBYbiNQbsNfasFXpDXhN1dfoQlfoQVvvinmyTXgydWRSOTw9YoLv1jxIOSNw5mtCyBWUBQgBca6Kjzz0BCS9Whe/hEJC/dWaPi7/g1/oyk4hEKNIHFPEHR9FzAKjwJDkKz2kGD5E3jgS6BkD+DpvXXcd4YNWNxR3HdHUVn34d5DO9oPN7HoCuGeNzYDxgCH8MyDE8UHrohpUSzk+nt4HM7h6P0VHGdqSPf3BBiCU2iO8MVmCK8Xnag0R0ha1EWB0VWA4d+0dwQaKomAURvIymd9x/dUnmSpg0/sITwmrLkGSvYg/KUOQpUeCMxdRuXxF9sCiHVPYKzQePN1BLJFXK+58etVD4bOEByZqgDjNsFRWO5a59VG4eGqqkIIdK+QcFXArBBxr9BYFUdBUXjmgSFMVjDetRdYBJg4muteHD/YxEfeGO57DFv0xFBd8+L+kgPDZZeAQWDUqC5WJTHUxlCf9538jSDFsJAd7KPTHuPNkhPje+vo1YemwowFnmGxg398fxXTSB6ZLt2S4Y4ICPd0YeLGTBdFl2VVHQVFV8KiRgUax4v41webKGbq2HLHsO5PIlwbvBMaKyTW/TwwVB1voYp9TwT/z4NNnG144UkWobCoyujzPDTvAkbfKygKh3VVeOaBUaWxqo4CQ5ho+kxQVFXokqwg8bd5kB4SFn8Ci744xqtutB7YcM+fmAGz4o4iv+yC7f4GGmtefOSLWxTGUJa71IXuirCoLWT7e8gNpzjMt/Dxh2uYehModcYzaBKdMR5H8niz6ESr0pupDGEhHGqqMAqLrgqK/q7Poj71IXLlLv7LshungYy4qNySE55iW4Ch0lhNFYegWI2KYzV1Td5iA+1oFr9YtOOLFRci4STcObqlG9c0D4yCJLGNGdfc5aaoNATCqigKDd8pFFZoFAp9x79RZVHVsQKj0NANWYHhft4WA0k8DCSx6k/geMWN3LJToOB/S5XZcEUQX3Iie9+GyKYfH0rsEhVoqCZUmvu+uOmibgAy4hvGOAY4C7nBPvLDKag0L0JZPL23gXG2IYGuxDLdCfKdMb60BfDMm5DAeB4WQqPKo6Dwmaag6GoFRlxTfYijUA5fr/lQK3VwaQ/BGcmJy7LCovt3QWMFiHtxT4UWUpkyvlxx4ucrTlQ9IXjydXiyjZnSKDBWUPSdqs7vCgzBUSh0VUUiJPrOCozCpCpDcGgEg27otwOTwmIwBZs/gbNlJ+KbAdzzJeS/ZcDrdkUQeLiJ/qIdm66wuCtCQlXiao1hbu/5G0GK40NPDAv54T4KWweg0lTaO3ix6sWjJSdanW1kBhNk+hNk+7vYz9Tw5b0N7BZayEjWdKMudEl3QUNIFBCuBESfxS0xi6oNkCh38dWGH5N4CcN0DSVnBKFq/5a6fFdgCJQR4zDOacOXrePSFcF/fWjH2O4XhaECebJ1gYZw0Bgo617hITBWWNQdaTyjrkeVxVjL2ExonMMMyjD+ZosTpJusisAQEKqLAQyfjXfyPpLDcsiIYZZMN6SqY1UYAsWglwrj9sZx8dAOvyeKB1QdX0L+oRP2IHwPNzF8aMeSNypqQkUhMFzvU4l8ccmWboCJ4UNPHB+4DYX5yJvAQmE0FYVRlZlmG3hybwMn/gSK3S1kB2NkBxMU29v4xB3D60UHms3RLJtSWNQ1WVeqDaFRpSEsVqURt1TtI9wc4TSUxaf2EJKNLWy7ogilqwITg2OFxbqq0nClouizxjJcRWlKHYzCWfzyoR0v1n3wpWsCBwEhOAqJAqOw6DoPjPVZlYSrPVkV20xUYIsTGMP4bDUDmrvS8ALWInMWLWAlkhXlWAqlscyMylQeKziyD6bwMJhC2BPDo0UHbASGEPkS+MAbR2XDD9+iHb1FOz5gICyQ3ABzz8uYhmpzYwTkI38S77tjeJ9BryeBhdL20QwYQlPq7+ETXxLTD5axm68JMLnBLlK9CbrVPn790TpOQlnkzPRbg15d7wKG79RlKTC6itI0R6jlm/jZmhfdfBPtWBEpX1LUiCBYQdG9AjIPzLxrYtaVytbx9ZITP1t2IRLJzdJvcVsmNEYqfuOq5oFR92RdNY75/wMYQ3moQKUZOKtUmHDmlhEgVSWFRoF5EEwh7YrgbMmJJV8chIxKRPXornsRXnSgtOLChyYsVoW5G5g43vfG8YGqjDOCBbojmsYy+a0DtDtjfLPkwOG6G63OluGaehOkB/s4ixfxxQM7OpUeGBArKPOrgkNQFBju3wVOqj7EM3ccX637USp30HaG4Su2JZbRop9VbRQUKyCqKvrOGghf20P4zaIDLWcEXo1xzLqNuCiLS7pLbayg6F5TbK5WFVG1ocoQABr3xt9wNQqCGssYK12V8bfrUQbNRaxG8wIL/+EJymo0B0JEF0ZIGONosEyXdT+UQtUexN6iHQ+9MTzU4NiXwGjVg+SSE6HNAO4HzJqNmVnNUnJ/Cg9MI2R0RzNgPHG4HREsMB6hyhAaKozAMzrAYbGBFw82cBLJID/aR26wJ3FOvjuR2slTVwx5xjJm/PIuYBQc60poVGF0jTVH6Gcb+PUDO7YyNWwHMwiGMuKWRIVY7DMrxwqOqgxVh3sCQlj0va7echc7rPouOnG+5hWXRLjULREYPqt74qoKY93zncLC1QClZFaIa7AnaYZr4qpu6QYWuqcbYDQGMgJiAxZCo8CsRfMCyl3AaFAsazgravIglMbWZgDDZScWmWIHU1gMpODwxjFYcSGz6IDDEZq5I1WYu4FJgi7pA28CH3oTeN8TR2MjgAWm1JXxCYqjQ4HFUJwpqjvMmlI4+WgVx6U2cltGJsW/3yl18cVHGzjJN822we0AmPBYAZnfvwuYZH2IV64oXrljaOab6K+4RA3eBYy6p7sA0t+4+kttFDI1/GzFjW/oluJFeIvtW66JsKlb4moFxgrSu4BxpOow7AYaq+rc7G+AUaXhqurybcCsUGGiRr2GyqIKs0LFCaVxL5TG4YYPjQ0flkJG1rQYTCPjiqCw4kZ20Y5VVn3nXNJvA4bQ3HdFpeC3UBpNRWGsKkOlKW4fYtjaxuslJ87WvGi1x6IwTL8LvV288sTx8t4GWs2RZE3MsggKU3GjtWDELYTjLmCs7zU4jjS20M/W8dNVD1rFNs59CYRDGUTNXhTBoFmVhipCKPQ3VRWuVtcUyzfxyWYQv15xo+tNwGNWhiWOKTThmbd8w6zZGKrCYFchUmj4zH9sfeZqDYrtSfambhSHe1UY/p0VmLvSbroqQiEZUjSLpVgOy7EcFBy6KTXGOlSYp0tOZDZ8s0CZ7zr2AELrXhRX3DfKwyDZrN3cAGMU/wgUYxpWilmvobkdIWQe2LBQ3jmeAUOVsRrV5lG6huv3VjAN5yQgZqxDaHrNEb55YMeZP4WiBRSCQ2CsLuq7AiNZVGMLnznCOAtlUC91MXJFEK70bkGiMQ1XVRIFRp+5KjyyL7Zx6E3gvy05ceoIwZ9rzIp9jJW8xZbYDBwzvlGXRBi41/iGzwRGAVFo9Jnr7wKMurfbcc3bwBCau4BZCmewEUrj+bILsc0AFpmOEwp/Aju2ADZXXcgTJNZ16Kp+CzCqQto6yNiDWLm3joXSzilK2zfQUGloBIdKw17T5/40Lu/ZMKr0xQUJNFsHOMjU8cWDTYwqPWQG+9I6IDBWaOZh0ed5hdGCX6Q5wiRRArvoydoAe8EMEumqZExWULiXtNwS16j68DcrQKo27Wgev3nowBdrXsST5VnMw0zKV2qLERyFxsv2Ams2ZkBsdVkKksuMZRQYrjfQzKvL7RjGqjC6V6UhOKzTUGGYSi+pwsQNtyQBcDQ3UxgC4/fF8WzJCb8rLEBQdQjR/oYPD5cdyG0GRFWssMyrzO24xki7H/jiKK65sXR/HQuVyYnEMIxjFBRVGSpMdjhFozvBxytuPHaEUB3uSyuB0FBFXjnCuLYFUKCymOqiwBAOBcOqONwrONaVf0twytU+vrAFcBLJo5JrohrKIN7anhX+NKbRVeFQYFRlVIEEmHIXGXbHl5z4ZtWDRiQnjU66LQLjL9+YQkNgxGWZ0FiBUYioMlQHjXP4fAMP45qbmEZdkqoJIeHe+sx3qjJaCWa8shjJYCmWxTKBieWwFssbWZMZ1yxHc8j7Enh83waHJyYKQ4i8gRT6ax7YVpxIOA2QCIy6IVUbhUiBMdySUQle8saQWdxE+KEDC8nOAFUTGronqxEcQsNU+zRdw+N7NjyKFlBkHLN1IMW7UbmLzxYdOE5VxVXRHanKcJ0HRZ+toOiewDBrSjRHOA5n8V9W3GhUehh5E/AXWqIyCsm7VqkomwqjwChA4VIHL+wh/NOiA3veBAJmVmUFJlDpCjwyQvFWB9xQm3lwqCh3AWP0rBpwputiBjzGzI0qyrcBo2ojqXSigJVE/luBabqjeLxox0YgZWRX4QySvjiS6x4kVl0IeqJm1pWZuaTfBgyblG5nCImHNoQ2ilgIlaqoTU5nKkOloSk4qjrV/h6+dkWlo71X7qIwOhRA8oN9XIVzePHROvr1oQCiwIjrMlVHg+F3AaMuidBwjKJR7uIXiw6cRQvYSZSRC2YQbW3/VmgEGLMjHmkMEar1Ear2EKz24Kv0sBfO4Z8f2nFlCyCca4iCBJiSWxSGe3FRHKMwjarjlkCYwbBhBMeVrcGWKMLBwaxsTWy2p9owzqGbEldVhT1dEdtMlWFLluS/5X+/yVoORycSZazHimI2qk28YGRG8QLW4nmsUlli+TsVZncziONVD9bMYt9SKIOKOwrnuhf1FTec3jiYNS2H05Ysiul3wgyAqTxJ3Ocglo8V37gU+WqbQUQXN5GyVbCQaQ9nCqOwWFeCI/HM6BDbjRG+vm/DiTOCGgNds9PdbI/xzUMHzrxsJxiZEuMfNQWI6zw4CpAVGFWcJ4EMvlwPoFls49geQqTSm7klgqH2LrVRYML1gYATqPZQzNbxy2UXvl71Ip0sI1jpIUBYSu23oFGICM8MGEJTMMyVqwsg/Ie3ZyqQ51xd5m4ID+dvDKvI7/ybm3dVzKBJlrDJrCnFd1VsJMqmlQSMdcJiQrLO2CZumL5jPMNs6fmqG501jwDG+IXxT9MVwdq6D4MVt4yOSA8qlMSSaYTFAIZZU1pMi3cCjyeKHXb6769hmQpTnRy/pS4KDGG5FQSPDvEo18Cr+5s4SlYkvpHAeHSIo3LXmKkptpE1K8dUGFUZheYuYPiOkGi8wz2ryPVqH1+v+7GTrmE3nEM1kkP0joamAqOB8OzZVBgCQ3iCtT7Cla6k179ZcmIQysIvwLytMAqLdZ3FNmZGJYqTb8wA4TOhIRS3gbGojwmRVWkIjhUYW7IC2kbCAGYjUcRdpiBRcTYjWXy27EJ1MyBZFIFZD6XRcoSwuu7FzrpX2gSSprNlYJq6JFaFFRhdHwTSCLqjqN7fQOL+Ov6OwNT2zlCdnIoLUlC4KixUF33mvrR1gJfeBJ4sOTFqjgQaxjO0594EXmz4UTLHJVRRFByu7wJGlYarwhPrjPE0mMZLTxzZ5gh7zihilZ4oCxXplvsx4xaFhasqDN0SoaFb4izxUTiLf33owCN7CL47gl4rJLqnymj2pKsVEEJCWKxmVRMF6G1QqCZFAUQVRlcqDVVEXFeydAsavrMC4wtl8OmyC1lXBEum4jjDGdQ2A/CvutG0BbCsI6HhHBaDbGqyxpM1QPEb6qKwcH0QzKBtD2Lz3joyDzbwfXsFC9Xd01vAEB41gkKFUbdEYIrbRxg3tvB80YkrZwT13q4ExQyMR7UhXnO6LVWRGIdVYUJDUObdk4Jz16rAMADuFFr4+aoX1UoP2/EiKpnaDBgrNJpKExR1VXcBw1niRrYhAfXXK27E2dWmylS6t0xB0dUKDJWGxneERmFQWFR59JmrO980XJYZ5xAcAsWVCmNP12buSIGhyigw/BuryigwhGY1XkAskMLH920IeuOzOo0nmEbe5kdxyYGEIyzASB8qVMBiICe2Ei5iKZjHYsAAiBAJLIE0VnxJjNY8uHd/HfGHG/grbwsLdSrM7inKDHaZLTEAnpyguntbeQiNglPePsLzZAVPPlzDcaqCMhWGMG1N8SReFJc1qg9ntRyFhau6Juuq0Ki6EBi1TH2Il64oPuFMarWPQTAt/SvColmVKo26JCswGr+owvBvksU23tiC+NWSE6zN+CtdQ30s0BAUX7kDr5hRo/EQFNZrzHfeUgt85zLdEqf5JCBmnGM1Bse5Bpx0VaYSETIFjdBwQJ3Q2Bj4WkyBISBWYLifxTLxAnL+JN7c38SmPykxDIt7kUASaZsfvSUnvP4EltnAlDZCDktBqkwOK+EClkP5meJYgQl64sgsOxF+YINzyY6/CfQIzLkAU9k9hVrZBIdKo25KgdG1NjrELx1hPF7zYas1QnF8jPz2IRrDffx81YNzVxT14cFb0Fjdk+4JjxUWdU8CRGsbu6kKfr3oQD/XlKZkggPklqMuVCKFxLpSYQiKQiOuiQW/Sg+P/Sn8t0UHjrxxhE2XZVUZQuSrdOApt+EuteAtt2XvrXRA4ztXsWlYoQEW8Fjkk0JfvgEPzcympMiXZWrNbKkimZXCYlUZI5ZhPGNkUFwJxbxLuguehj8hbRxmQIRsOZZH1pdAbMMrQes6g2ACE2HfKYcl01bC7IjnsRjO4SHVJZgRV3Q/kEbeGcE6h64WHfhwyY6/DQ2w0Jw+Qn16MbPa/rmAo25JoVFQFKDSzjGGnTHesKDnT6I0OhBgsqMD7NUH+PShHbtFNi0toxOWzMmqOgRHgeGq6kOVSbR3UKwP8emaFy99SfRyDXR8CSR4fsocPNeO9zw4BOYtY2xT7WMUL+E3yy58agsgWWgipDGOqTJvAWOC4qt2Z8AQJrFSS9Jmqc+wyKdmSb8lBTfTbHVV1hhHYxuu/J2wcG8FRsGxAiPvEkXsuCLYXXZiKZKR/2YplkfNHUVs3YtttgSi5niExDfsgt82ASaUxcNQVoBZCqRR2vDD8cAmx1J+vO7Bg0DOAKZx8Ag0gkNgqntnqO3emEIyv5Ynp7hMVfD0oR0n2TryhGZ0gML2Ia4CKbywBdDWes07YFE3pW6JqwLDfZrZU2eMw1gRX6140C+28cgVRbrcnQFDcKzQzALf5tYtYKg0dEmMYyq5Bn664sYv1ryopyqSdjMolsDYhIYKQzWZgVFuy7O+U7Xh73a6mkIDHipPoWkY4xtmTrQC93U4LYGxVWWs8PA9YVGFUcWxAnMLmlgeR/YgmituaU4SspV4Hh1nGIlVNyr2oCiOthNWo6ztGKbgWIEhNJuBNHIrHpQe2uF6YJNzSYu+BBYaUwMWKzCEhq6K0IjLsgTCt5Rncor2YB+fOsI4XnZh2Bwhv3OEws6R7F8tOnAZzRsBMJuW/b1Z8GtVGAXkrpWKQ2BK7R282QjgNFrAMFvHMJKTw3VW16RxDddYcwux1gjR5paYuicFJlnt4+PNEP55yYUxD9GZrmsGTbULqokqikKjkFhXASZXE/dkdVVOQjJv1tjGEjBbgdG9gqLw8NlqCo0jmsOZLSAB7rJZo2EgPNoMILvqRsIbk8D4uwKzFC0g5I4hwX/TRQd+/HBTDshx3FNckiqMda3vXwgsBEbNCgsDZQbIpfExDugy7m3g1J9Ec2sq75hRPY6XcPXeMnZqQ0m73wWM9KDMXtQ8NBLP9CZgin0YK+ArewiZ5giH/hTytaGojKgLVcbiojiQFW9vz4AhPOKeqDICxxCHoaxUfZ+5oxLXaKwjKmMBhtD4qz34TXfkqbQxb85iE45iA65SE07THMU6HIUbs3OfrxuKIzUbZlhG3UYhsa6Eg8Htu4BReDyxPC5W3Yi6I1hLFKUS7I7mMNjwobDuRTCUlncrPPdE46ywacthjoHmjBhGXFIG98M51DZDSCw7UVxy4ocbXqPLHUhhoXlwieahYbeAmYtrxFUxc7KYBMms4UxO8CpZwctFBw4KLZQmpzJP02A7YTOIx+4Yav09CYC1ZmNds4M9ZEzLSnOTDU6OUewh3TfmiROdHUmtP9/wY5proJ2poZOsSIxDUAgHjX+X4MqguLMjKqPqogGwgNEYolFoSab01YYP2WJr5r4YHIvS1HoIqrGGU+nCU23BVW2KOSsNiJUbIDBUE6qNu2wExI5CDY5CdWb2fAX2XBXOfNOwXFPOgDuyLP5ZK8NGhdieNqq+zJ64vzHDXYnCJEsIRXJ4uuyCJ5jCerIoapLyJ1Gz+VGz+eAIZ7AWL2I5WsBiJA8qCPe0JQa7oawAsxjJ4SHbBgGm026klh2wLzrwnpsnENJi7wTGCg9h0diG8c0tM+s4tZ0TvHFGZTK/399DgWOf20cyhPXZg01M801kzWYm1ccKjMBBQEzjdJ9M+A33BRiFJt3ZwXkwg5+veVFrbGESyiIjVWEDDgKS7I5npsDQLc0Hv2EGxLU+fmoP4lfLTvQ57sC+k6XIx72axjYExlMzTMFxV5oGKEyzy21xTc5CHc5CDc4iXZVhjnwVjlwNDgGmBYcAQ2iaojSMXaxGiFiLcWSMlNsAxwCL6qLAJENpPOOFA2ZGtRIvoOONI73hQ9XmAzMkuqiVWBlLsdJtYCJGhkSQCMyDSBqJQBy1ZQeyy3a8t+SUIJhFPNpCy6IwVBorKLp/FzCahjPWYRZ1UBvg5ZIT1+Ec6ltmSj0+wdNQFq82fGib9RrCYo1h8lvTWcBshYWqQ1h05cmFQamLny86cZisYBwrolUfzgAhLFZoFBi6IzWNaQSizjYehbL4FzY5vXEELGk4AVFYuCowvmoHvpph3mobM6t0RGEYw4jKSNrdgLt0YwRHQMobkBAUe7YhppmTdTXqMvPA3BT7FJhCIInzZRc2UyWBaC1WwJ4nhtCmHxVHEOscgYhTeSpYjpdn6jJTGRMWUZhoFn1XGIFVJ7LLDrzPGZpQFkyzDWAOH4tLah09Bk3dk66ERoHh3ppJERi6I029GzvHeBHJ49mDTRwW26hxVnj7CIPmCK9W3XgazaOizUwza5K4xgKMZloEx+qmuE+xqtzewUt3HG9cETmSwjiEKbbVJanK6DvragUm3OLgeR3/uOLGlxt+JKo9REw1koxKu90WpWEco8Hw/KqwaEDM59vGuk0LzryhLgoLV2v2RGioNNpfuq0wtzve66ky2t44jlY9sJkxz2a8gGNHCD5HECVXBBvS4S5iJV7GSqKC1XjpFjRLkTweRnJYjOZhi2YxsvlgX7QhumSXkwMPzFT7OwFDcLROYwWG78Q17Z7OUnDGN0yjf7Xmw6MNP7YG+xLzEJrH2QYuf3QPR+UeiiY0dE2iNFQcMyXXVV2SuilRmd5EelfDQhtfrbgxybdw6ImjXGwj3h2LivBaEgWGCqOm0KjS6Jotd/G1LYBfr3jQy9YRMms37wKGbQQ2LOeN8DB2obrMgCm24X7LOnAXOwINwZmZJd1WYDSG+TZgVpMlTFwRjDcDWI3nsZ4owhfNY2cziMCGFzl/XEYoVmPfDgxhWYwWEA0kJXbJLm3Cse7Gw7ChLlQZ2kLn+KkoS/v4iax3KY0Cw1Wh0XdUH2ZUDTOrquyf47g5wieLDlzECrO2Q2PnyAiAN4NoDfaNLvjIGAVl3UZBse75ToHhqq6JqvSxJ4brYFoGrA4iOaR7EzlsR1joutT4rLDctSaaW3Jm/L8uOnEaSM0Uhm6IcY+6JQ2YQzU2MW9boNoXgDwcg+C4Z7kr5il1QSMgrkL7LZvBIorTMAJgthBy3NfBYFhjGEKjPSaCxGzKnqpgLV3F2WZAzlutJStYT5aRYtPRGULW5kMslME6u97xkigL1YW2QoBMM1wTJ/jyKHmisC87MFh24r4jgEVO+5lZlChM5+QpCMu8qUviSki+ixEiCY73z3GdLON61Y0zzqBMTsS2ert4s+LBQaqKvGV0glVjKygKiRUYjW24premGOebMvrQrg+wRzBrfaTFbd3AQmioMHeBMnvXGmGXV44sOfEZU3ZWgptbAopmVwqPARAhetsClT58pe4t85a68JZ7As1dwPCdQmMNgK17QkJYnIx1zAYlVwGI2VOmjmtOCLjjWEvVQGiqHDZzBFC3+eCLFrCWKN+CRaFRcOiS2HvaiGRRd4YRXnGhvOqWI7VLkRz4O6H5zsAoPL8NGiswW1tTfL7hw4UtKK6pNDlBYXKCy2QZr1bc6DFTMgfO2fhkPafIot/2oWRIBONdwBCocnsbr10RvOZUWamNUbo6UxVVFwWG0KibmoFipuGx9rYcaeFNWL9c98mwFt9pViUpuKk23wUYf5nVYkOBfOXeDBhVG+tqVR4rJMK4kWAAACAASURBVNa9AuOSTIrpt5ExKTC+ZEUq6hlfCis8PJeqohNIw273S+FuM1b8VmAUpqVwFu5wBiUmJ6turK845X6ZO4GhyqhZXZOCosGwuiFd7wLICs1lpYfX9zZwkSyjtn0o8Ux/sI9Xaz48C2ZQ0w74ztEMFgKjamNVFXVZfCfBcH8XB4my3C3TqXSxG8ujwOO8/d2ZWd2RAmONaRjHRFsjZBtDfO4I41+XXdhJlCQWIijz6bgR12whXKcCDWdgEBAqjKqM7lVdCAn3alY3RWjujGnMwJjAUF1ohISmz1SXSLSAV6tehIJZrFGBkhV0PTFsEhhHCOsc+eSYBGdrLKbqcqM2RSS8ceRW3RgsOcHeEednliN5o17DwJgxTPf0GdTUPREQ3RMaBeYuQO56J25p7wyN/XN8FuP/gzzYq/XFLTEFf1Tg5UXrEgDLWMWuUTFWWFRpFBLrqsDQ/bQbI7zZ8ONZNI/tbA1bhRbSZqyj8Q5BsSqMFRxVG4LD2yP++0MHHvuSYFxjzaYUHMM1saYzesstKSR0S7O9BRKFhauv0p/FNgqM1WWpm3KyTpOuQdVFQeHKd/ZcE4VIHh8vu+HhEdtMA65EGS13DLFNP+qs/Epcw9jmxjZSVYGHMYwCsxwvousMI8ODcMtOvO+JSnV4mee7tcgXyd8NDFVGIVLFUbXR9S5Q9J2m4fWDR2juneFzWwAv3FE0OTaxe4bG7hm+cYbxaN2HvpyyPJLKcMFsXBIYq1mB4Z7QSBA83Jf2w5c2P/rlDi59SWRMYDRIpltSSOZXVZtYZweDYgu/XnZJ66FQHyDe2bkFjeGOGAjfAEOlUbUJiMoMJIZRYPyMa0yzAkOFUUC+DRhxTRkOX3HmpiWQWOFhOt4PZvBizQdnsoqNdB2+eEm61A2bH9lACqsWUBQaAxim1zexjT1exGTdJ7BsrrqxyEFyCywKzQKVhHAQDN0rLFz5TjMnXRUMhYfvrW5K3RLHP5k1nVZ7eL3mwVWsgMbkBKXdU2wN9/HZqgenyTIKDIA5/mnGNHJSgYfp3uGqFKDM1hSdzg6+2AzKMZhtppOljgS/RuB8gHR/H6keazhqN0Gxqg/BybS28Y3Nj99Qkks3abqm31QZI1PiyAT7UhaVqW8hWN+CvzoQ5eCqpmqiysJVgSEsCpKCw1UVhv+wm3RDloqwPdfAZrZuWkM699N1Pxy8hyZdQzxWRNkdw9a6H6F4CescKk9Vb7klFvBoawm+r2E1WUM+mEF91S1nsO9zDnhW5GPNpoSlSBGL4YKhMP3za4HmLmAUGv5GI1gKiq7vBMZsKbR3T/FpOCc3Ix1V+zJvk5+cyDFcuqsdnnMyR0F1hIKZ028DRtwTp/zCWXzujslNn6ehjMQydEnZ4bcDo+pDYGLdCZ5y1nfJiYtoHjE2POcqxPPAKDjhxuhOYAK1oYCjUFjVhtDQ9DcrMKo+hIUqwmeFhm7InjfcEdXm080QtmwBcV22dA35SB45dwzTDb8c1VVgCI0aIbHaWrKGPV7itOZCftUtR0yWZ20E9qAMaLhKDENgaAqEqo1Cou/1mYAoLFz5rKrDVdVGXVN1eo7R1j7+ifO+7hi6W1OBpru1j9ebQbzwJVHn4Ln1PNRvAUbdUnZrimG1j5+u+zCu9DBMltCt9sQ1/TZgtEclStPfxVahiX9e8eBLZwTsWzEgVmg0jqELUlCiTXbDt0FgFA6FgApD1VHlUVh0VaXR1QqM7gkLQbECI+AQmHwLgWxDRk37rpgo0Ua6hlogg7w9jLE9hDULJISFQNE2UvWZrSaqcMbL2NsMwrviQGzVjaVw3tJ3Koq6EBb2ohZ6Z1cCC4HhnrDMA2N1WQoPIZk3K0RWgLivHjzCRW2AN8sunGZqKO+diZ0wk/pgDUf5pvSjdLJPVku6rWrDdT6LKvUneBZI42tnGNX6AJNURQbPMwNmVFNxS3RNhnu62yVRZYqtEX5hC+BXKx60Sh1EzdSbwTHBMaDhaoCi4KjCKByERoFRkLgqLNaVf0tAuKpZgVG1UTfF1ZFvwc6ToKkqPl9yoRTMwp5pYCNTR9+XRHEzhJY3Ic+qKtZ1Xl2SoQIyNh+q7E7bg2YgXAFVZiVeEWDokkRhBhfPbwHTPbuCmCV7IkgERd0TgZqHhc/vAobvGQBX98/xKprHc5sf0/Y2yvsXqI2P8YUvKeezB7yYUU9eUm0Y75j1GSswGvhqLEO1mRRack3IcaEpd//KQTsBxgDl24ChwhAKjkW89ibwLysenEbziFqKft8GjMQzjGlMpSEQqi6/CzDz7kl6TNb2gblXYLLxstygEY0Wjapwpo5dumZ7GMVIYRa/WGHh3grMRqqGmj8NO4elVl1y1RnTb/ac2KhknENlUbe0MHj0At3zK7ROn6J99gzdi2sxQkJTdVHVUVisAM3DI4CYVV91S7qOhlO8WffhhSuG/vaRuKbO+Fh6QxeJkgTJbGpaASE4NH1nBUZc09YUtcGeXET0lSuKfq4O3iyR2T6Umo2RMemoBFsMhuokOqwEM4vaFSM003gR/2PJiU9cYWRbIyTMtPwmBeeMjWGqNOKWmtszt8R/eIJyl1F5CJTCoS6JqyoPFYbKoi6JbkhVRxWH7yqRPL5ZcsHNim++BX+6hokziupmCDEehMs0sJlpitnSDROUKtbSdbF1cyi96Y4gtuxAgXO7kTRWODtDYFi/SRrAKDQGMBfXAkvn/OotYFRdFBAFSJ+53gWMNZbRmKYxvUBz/wLPc028uL+Ji2QFDbqd/XM8ytXxyZoXO50dlM0uONVFTV2Rrlqz0VgmNzqQG7G+3vBjVGzjwp9EmdmPZc7GKOrdAKOgaAbF05b9QkOumv8Fq76cG54Dhs3NeJuKNJ65JgWGCkNl4T8+17uAUcX5NmD4GwHR+IWQqOuyAjP0p/F01StHWDayDaSjRXTtYbTsYXjZe8reAENwFJrVGTAV+OJ5lG0+bK+5YXMFsRzPYy1ZlqrxCus1yZooDIGRGGb46AX6ly8ElHcBQ0hoqjqERE0VxwqNuqb5OIbPPKXQ3T3Dz70JXK/7sNscCSDd4T5eOUJ47oqiNT5GhTGOqSzqmhQeq5tScHjEpdrfxRtPHE9jBbSTJRxn62DqbaTY2rw0gFGVUVfFNdmboNQc4mf2AP5x1Y29VEVqOIxvVGEIlSqTVWEirR2Em9viltQlKRxUlXl4VGn4t4RBFUZB4jsFRX8nRLNYJtfEkTuOfabU+RZs+Sa6kTyqjgia7hgckpLfBsaAxlAXqsxquopMJIPKhgfbG1585I1iPVXCWqqC1VQNAozpkphm05UtDB49F2B6j54brujRc3CvmZMGwwqLVXEUFqva8J0awVFoFCICw8HzzuQUv1j344U3gdr+Bcr75zipD/Dyw1VcFFoS7ygw6ooMt8R0+7byqOpktw9xlGvgG3sQ5eYWjn0JVHsTcUtUIpoGwrqquhgrLxjgVflZ/L8PNvEkkJavutwu+N24sJlrMmFRYKguVBuNaQjHXdAoUOqKrLAoHAqLqg4h4m/+Ug+PPQnsuOPYYJ2m0MZRMIO0O46WL2n0nGRAqyXKQnVR97SWbUhVeCVTw4gHBDf9CC3a5P4ZW6aCtVQZq8mquKXVhFGvYSxDWxhevsTg8csZNITluwCjqkM43gXMfCAs0EwNlanuX+Cy1MUnqx48K3aMoy2sCrNyaQ9iNNgT5dGpPlUZhUjVhrDM9uNjtHq7+NwRwnWmimahia1SRxTmuwEzRqI3xjhXx7+suPCFI4Ts3EQfvymlruwuYAiNuiPurc/zKvMuYAgQAaGaKDAETqERYHJNPLGH0QhlYTfd14Ujgqg7jjqbj+w5Fdtw5BkLtWawEBoCtpFrwZutY9cRQmndg1WbFxtJBspFrKcr4pKMGOamZrMUr2CBLmn4+CUEHLqni+fomXUZVZmZujDGOb9C+/QpOmfP0D59htaJAYyqjaqLPhMaVRlxSQeXojBUmf7eOT4PZ/FoxY3j3gSV6QUGkxP5rsHjWEECYisgCof1HWHRZ66sGF8mSvjVhh8cfThIVZAf7M064LxRyzB1UVoBNib6Uv1dFNrb+PWGH79e80l6LYfmeD5KPj42QbwzQbQ9RoxxTHsMdUdWhSE0+qyxzV3A8J1VYRQQwqEuiXuFSKEJZxt4ueFHLJwXdeHz1BFB0hOXYJjAOLIcBSUwOgrKtQlbriHQVFl53/CjsOrGSjCFzXQFG6mKZFcMdtlWoGuSsQm6uEQJC1uXL2E1iWnOr8F0W20GDot7BIawnD2TzIrZVcdsLRAOKzC6n49vZgAdXmJv6wC/erCJy2Aa/fEJqoeXojyfLjow5XmkuVjGCsdde45R8HzUOJjB40wNu4kSOp0xWOBTleGqvSajScnZYaOFQPVIdPfwIpTDf19y4SxVRZTvzGwq3t1FrDMRSLgqMISGpm5IgVGV0fdWaFSJ1F1ZoVAwuN5lSVZ5bUH4+GWWYgfZVBV9TwIlTxy5ZAVsXEqH2zI3LEW/XBO2bB0b2TqO3XGEbCGUNoJYj5fMop6lIpyqShxD97SUKKEUSGBh9PjVDBjdExqF5VadxgSGkGj6TaWhAmn2pJBwtQbG+t4a1zDVZkHvE3avV1w4KrRQm16gu30oh+9fOCPojA4kAOY4qM4Q3wWKvqMK8TBdgh/UCKQxyDdxGi++ExgjczKAUWgS/X3s5dv4l1UP3vhSSAlERuqd6O2BRljuAsYKDSGxmroghWYeGP1dYbGqjULDd7RssoorAsNAuNBGNV5GlkeJ3THEzYaldLtzTKuNFoMVGD+H6B1hJDYCiNvD2ExpFfgOYKguyRL2HCEDGIJiNVUcBWemMBdGYGyt1xAYjWcIiIJxFyz8TeMaqgzTbRbzmG5/FsxIljRh24Bjnrx+lbM0qQp4wwSzpnloFCCrW9I9Lweo5hsYF1o4CKblmlim3qzh3M6aOD9j9J1mrYT+PqrtMX65GcJv1nxoNLbFDVFlqDBWU3B0peKomqhLIhg0VRJ9VkD0vYJkhUP3XBUWAlKLl/BoMwiPWbPpRPLweBPYc8cRyLfg5kgoK8KSWt8Ghr0ojkVkHGF01rxweBKw80iL2Tow2gdMqStYTlWxmq4hGcnhYM2Dhe0nr6E2D40Cw1X2j15IQKzpN1cCQ5dEaBQSrvqsAOlqdU+ERgp60wtM+7v4bMOHzzmnyzrM3hl+FivgxaoH24PdGSyERM9F3QWMKg1XfsPyKFFGtdrD01hx5pIUGCNr4iE6nokiSEazkm4p3ZmIurC3dJyqId7bM4p7c8BY4eGewBAUQqGxDQHiOwVCVYd/o+/0v+GzxjQERPdc+Uxw3JU+BuEcTt0xURdPoY1BIA2XJ4GxLwUv6zYmMKoq1pUd724gBTeTizUfVkM5yaqoRKJGmTpsmZrEMktJIwDu+hKYPtzEwsgCDMFRt0SVYSBMULYevxRjcMyajabgGs8oMKI0ltaCVXHmgZlXm9reKZ5n67hetOOi2Jbhq87OEX5mD+NZrIAWWwsyLmGMTFBxFJiyNfA1m5hUGt5Zs5Uso18fYDeSQ7+9LdAoMFoxliCYV8xuHRrQDKYyDnGSrOD/XvHgtTeJbIcnMPeQ+C3AGLEMVWZbgLHGOFZQVGX0HUGxKo2AYRl/UKWhojArOgikseNLwVnsIFhooxfMIOmOYRDJS9pNYERlzOFz6UGZYxK8GrbpicvtDOnNEGy8rTxtwKLui8q0kalhlTFSuo4D3pPnimBh8PQ1tp9+jJ2nH4vSKDBMtedNYdHUu3NxbSiMmT2J4ojqXM1U5y53RVgIE9WmcfgItaNzVA/P0N07xi/cEbxwhrE33Ef18BHOqgN8uuLGaWtbnovTcxSmZyjunRpuyjx5aVyEdHOfDXtSpfEpCrUBLqM51Mpt7OdryI9uAt5Z8DucIrN1gMzWIdLDA6QGUyQHUwxLXfxm3Ydf2gLymWYp2JkxjMYyusa7e6BF2wyIJwg3qTQ7s6BY3ZOuwZrhphQYrgoRVwXEqizyrtSFs9zDE1dMIOG7WK6Jtj+FFr8cmyjDRSUyYx2tDM8KfvkWouxqOyPYXfdhjV/b5SkF80CdqgxXuqa1bB2VUA4nq17EOXFnBWYGC13Qk1fYevpaVis4fE/jO1WaWQBMWEzTTEpXBspMwVVpboC5RP34kVjj5BK7kyP8YsWFJ9G8xDi96YXMunziCKNPN3NwjqIJTHnfjG0st0to85LzNAQmt3OMSSCJvXoPe8kiKubEnmZMMqF3BzCEptIe45/YvebX4uSzhvtI9fcl6FVQdI1390GLtnffCQxhUVNAFBh1XwoNQaDi0KxuiYPlHDR/4YqiGS+Bz5lMHTV+48oRQYQfELMMn88Dw6owA+SaPYzBul/OIrmyTcmqNN5RaPi8nqnhwhnB0BaEPV7GwtaVoS5UGFUZcUePDSissMzvVXEUGK7fBkzz9DYwHQ5jHT1G7fACtaML1A8uUD+6xHWuIRcIPaoNUDt4hL3eBC9tATyRAPgU5YNzlPbPUJ4aa2nvVIp8TKlv2ZizwifINvq4jGSwnatiUu0hNzdozvYB1cWqMAQm29/Hy1AW/2OZABeRNbMlhcS6KjCxzp4AQ5UhBHRJagoFoVEwFBgFiK6JvxESdVFWcLyVvnwY/pPNEErpmigR14ovCRbu6LIIG+MdFvgUGK5UGTYpx74k2vYQQragxCzW9FthobqwOVmMFXG64kHBn4I9VcPC6PpTjK8+xeTqU4yffTKDZvvZxxg9+1jURBVlHhg+KzTqphSa1vkztC6uxJrnz0Dju7apMuKqzKyqfvwYtAbt4BG2eLCfvSZ7CPvDKWpHlzjhRYz8Xzp7T1SW6TkqhxeGe9o/A6EpTI5l5V5sfGIcW9k5xCiex06xIdN5pe3DW51v3prFiwKyoyMxgkNgaAe5Jv6VQ1XuOErtMZLsOZl2FzAEh9AYSmMU9RQcdUdcCQYhsSrOLXju6HaLe+L3Hnjyc82HVLYhcLSSFdSpMN4kvKYiKTCERo3QBHNNHDojcqvmhi8pcc48MKI0PKmQrmHqjmO64kEwVUUunCcwn9wJzOjpa8MlsU5juiAFpk9QTJN3FjdlBaZ5cYXm+RUa58/ECE33lDUbY+ZGg+LG8VPUj56icfQUzQOm3s9w3p7ItWdPwzl0ebry6DGu4kU57cjMitCUDy+Qn56Z0Jwiv3uM4v7pzCq756IwDICLzT6mmQq2mR7Wh8bFR+aJy7uAYSyTHkxRbe3gM2cEb5wRdKtDI76ZA8bIlAyXNA+MBr1Rs8gnz5J6G41KAxhjYk/VRdTmW4CppWv42hZEhK2DSh+jSAENTwLDWFHiG1UYa5bFd65yD+1EGV13DGV+4SRZgZdAcc7GUuATJco1kY6XcGoLYMBsLNfEeM2HhdHVbWBmKvP0NZhBqTFTEkV58hL9Jy/Re/ISXcYxluCYaqPuSTIoKgxnbVRdqDBMw8WMFkPr+AkIDGGZ2eET6Wo/qw3w1BHGUX2A6vQC49EBnvObhnw+PEPt8EzW8vQMJYKydyLBMGGiwlT2LlCanBnB7+gQ41QZ9UYf55EM6tv7KI55vZpxYC43OoKauCYOX9FNDQ/ku93PXTEcpWtIbB3eUpibtNoIehn4xjqsBu8ias7NsIWgIxHc86Acr8EXa47kpKWeQNAR0KDpmuieCBKNrslbG2ISyePaEUaYbqfSx14gLcDUsk0ByAoM97PnYgdHPEbjCCPrioq6aCZlBYYpOOeFe4EMLtZ8CCfKiPN/uO4YFravPhF3RJdktR26J9O2qTZUmSev0HtqWJfAmNBQbe5yT3RTGtPoqkEwnxkIN0+eoHn8bGaEpnbwGLXpJRpHl7gotHHtS2C4fYT6/hm67RGO3RGMt6eoH5yhcXCG2tR0UVNTeQSYM5R2z1FgpjQ+Q358ikaxIycY+qkiduo9A5idKQrbBIejn8fIExwzvSYsydERpvy/wZPAq0AaCdNVqcuiWyI06p5uANqdDVpJwW8Gzc2oBEcmdJKPN5zruIRM8NWGMitsBYbQEJinvqRc38/gl9Ds+pLoehKIMzuaG85SYOiWGBBPnBH4eMN3OCcxjcY41rSbwHAY63gzhB1nFM5sU9LwWLyEhTFjmGefzEximatPsXP9KXaeG7b1zMiW+r8DMFQbVZx5WBQaKzAzdZkB80hGPvv7Z7jk19+iBRm+IkTpWg+PY3m09k9Rn55JsFw9uACNsQ3VheMSN8AQmlPpF10F0mi3hjjKVFDZOYR8hlnOQxnAEBoaodEguN6Z4CBawGUoK5kTU24CM0vBLZmTFRiqiqTirBDPgLm5HEAHzI1jucbRFcJCcOT8tplqzxTGPG35sScuSkF4coU2tj0JVEM58GyUAjK/Eox6rISsK4Yl8wSkwqKrpt52VpKjBZyvepGKleBNVtF2ReWm0IXx889msBAcKzDbzz8FbevZxyA0g6uP0X/2eqYyojam8mhgrKBYYdG4RtyRJe0WdTl5gtbJlSiMFZqmpY1wyBsW1r04rw3QPLhA7fASvXgR+/WhpN41ExQNhg2XdIYyXdLuOYp0S1Sb3XO001Wc5hrg3b+d3q4Ev3k55805GwbJBjBUGhbyCEWut4fdVBXdVBXTXAtJS71GlYaBsKqMruxqcwTiNjjGFSQ84qJDWQY45gkEy+E4DYI1owrUt5CoDvCGR0tiRXjrW2gnK5JSc7pO02mm2gyQb0FT6mIrnIMnlJUbqJgNERTGOVZgeIyFNZkTZ1R6TZ5MAyVPAoVQTk5aLkyef4bda8PUJTFrYva0RViefyqgEJbvAswsMDYrwlQXwjPvngiP1GZklvh6Bo26p9bxzRmozsEjPEtW8MwZwXjrEPWDS9QGUxwmymhPzlA/vBRlIShUGa5iJjCEhUaAWNWVT+rkWzgutJGXTMqA5BYwVJntY0NlBlPs5Zoo55p4HC0gx4DYkkkRmruAobrI7Aybla0dOULLj5PylnBesqwfsZKLmMNZvO+M4CMPv4KWwnuOMCLmBN8MnMYImXIPv1xyoZKuwdcYgZ9WjIeyMnV3q14zB0yo1EXPl8RGvCQ3MVBNFJib9LsjaXc+UcHFug+VYAbORBn7az4E2MDMNbGw+/wN9kyzAkOXxAyKQTFrNbThnMIMnhpxzfDxTTFPYxkrOPpuHhp1VZ2za7RPr9A8eTazlplyG9XgS2wdPcZLbxxP+b+o6SOxfr6FJ+U+KgeX4NknuiNxSwIM3ZIR/Bpp9glKeycoTy/QLnWwV2jjMpxHc3Qkt0oUeVsW4ZGrR3ir+bFcScJUOzM6lM8XVrINufa10R4jZVaEFZa7gGFQ+w82H3684cPfr7rxgwc2/M3iJv7kJw/xb/7Dn+IvPljB7//Fj/CTTX44gnf884siKXzgCgtMVCaFhSsVppxr4V+W3ciUugg2t+Vb3654SdSErssKjVVhEvyynScht2eyxqJpt678VDMvP+LHUw99KUzXvAhl6qh4E+gEMwIkY5uFvRefQ43wqNpw1YxJQdq+/sRQm6evxEWxTrNlwqIVYK7qlhQardFYV3VThKZ9xhMLxqkFjW+0C87UW0Yijh7joDPGC1cEx92xqAp7SBxLZIe7Yd6UpQ3N6v4pKgcnYuXpMWil/SMUdo9RGu7hIFvDIFfHWbGFwi6vIjlGcfdEjPvczuFMYRjLtDoTTFjvyDbAzzBzBEJjHMJidU18pvF2z3ueMOypEpaDSTz0xbDGq9uDafzlh6v4h3UvfrTslOvm7/tieN8ZhC1ZQKQxgCNTRqx1uzLsr2+hk6ziy3UfErUh0tUBLrwJODN1+MucG2Z6PoK/ysLfEN6y4ZY81QEa8RJS/HpJJD9TFsJCqKROU2rJTaCZdBknGz4MfQn4c3WMOVDOA3V5Tu3VDWB2X3wOw95g94VhVB1Co7BwZRA8vP4Ew2evwexKjKm3WbPRVsLvCsxMaSzDWQqMNik5CtE7vMSjdBXXrggm42OBhl+Ku+TNA7wtwrw+1hibYOZ0IlbePwatRJMC3xHGxSa22ts4iubRGk0FGgLD37nmx0cojE9m0BSGB3iUrCBd6mKaqSM7mM5+0+DXqjYCTW8iH+7i5dP8lPJ6LI+VcAb33FH84Q/+s4Dzp//5IT5whuQbBLwdQgNhfhyDLkkLe1yDdEFMqe1hhGtDlIod7HmTcjogUGP6bQCj0HjLZhBcHWDXl4KHtzDEiqJChIUmxUCJY5rybYVeJIvzNQ+i2RpywSRq4RwYBGsWtTB99SUmrz5/y6yuSlVn5/ln2BI39TGoNjuE5unHGNGoNmbvSQNgKgqVRFfdW5WGewJzE888k2eOgbYtFwWoa9rZPcXVZgBXmSoY21CReLEhi3FUIvk788YsaTkcMnuiuyJARmzDtkKjN8EF537LHexVuiiZ6nKjMifI7xgmscz2MU7yLdTyLeynaih2d2cKQ1Cs0IjaUHX6+/K/4Cjv3evvIdnj5N5YgPm3f/R93PfE8Aff/3sZfeTwVlzqNky1dxCusz5jFPdmbqm+JdfOPuX3Kpvb6OSaaPpScBW7CNX5tzsI1llFtirNAKFiB1NnRK4tYxWXqqLA6N7LL7rk6zh0BDF2ReQyxy4vvDaP6mpgvLD/6gtMXpv26nOMTftWYK4/+U7AaKakivMuYPheg2Cu4qYswGijUobIj5/gtLGFa0cIh61tmadp7hzhKFVBn99IMO/hE9fEeRuORUwvjANyWiHePxMVydT64p6OMlVUtw9n6kJoeFuWAsM1u3OCbnuMg3AOg3QN7fYYmdHRDBS6J3VLN+sBop09xHvMoKbG2t3FWjSPHy458IEjhPftQfmqbIrNy9YE8dauWLjGwp4xW0N1IXTxxghPfCkcRfIItnawnSgjEc2LSoTqnO67DQzdkrvcRy9Rll7TUqwooFhjRbdWXAAAEJxJREFUGwXGWWqjmijifN2DfKaCGG/nDKTk+hKFhevC9NVX2P34S0xor7/AzsvPsfPyDe4E5loV5rcDo2pDWFRxuJ9XF30mNOqa2jzjbQIjszbmUd22XOBoTO3xoxgs6G2ZrqjWGqHS35VmJl2SAcxjKQJW9y9R2X8kxvqMkUWdIz2aItoeYVJoYrs3MVoLGsvMAcM6TnF0hGexItqZOiblPjI7J6IyhOVOYIYHiPWmiBGYvrEme3vyzaK/W7TL53EIDGOaFP+uxWKfCUx9G7G2MTMszcvOGPHqEC+dUfSyDWlo7kULcCfKYFX4LoUhMPztxJ+CJ5KHLVOfBcXa0CQwjGE85S5O3VHsuiLwVzpoO8PI8mu55a7MDHPKj7Zw8Opr7Js2ff1T7L38CuPrz7H7/HPsPf9CbHL1BjSm29YiH7vb0jpgG8FsVjKu0b1CY82SNBC2rj1O8l3QXqJ7/gLtUyPN5qqmtZrOiTHdtzM5xZU3jhe5ulSLCQnTVYJyY49R2+dU340pOFzLe+eShVQbQ1ymy9JaKI2PwK+0lCdnt8wYlTjBGUvmmTpO03Wkt49FYSSTMqFReNJDKs6BqSycrzmUPcFY9KdEYfihDALD5+TwCJHuFNEuu91jqfJGuxOEurtiEU781Yb43BlFgTMwjRHGkbxclMg6jQIzU5nqCN7KAOliF3v2MNbZTORxWsu4hCoNh8iLyQoerfvRjhXgjZdkVIL1HMec3QJGwSE0+y++nJmCs3tNcIwWggbEMhKhAbC5zgNjVRgrKLoXleHxFhkBfYHOuZFmKywKEGs0Cgzd1EljiGubH6edHZmz4QA4g0UCYwyb3wBTn/K+YYvS7NFNPTL/USc4TOQx7u6gzCrxO4BhUa/VnqBV6OA4VkKVN0JwtJOp9x3A0A0l+6wKcyjLBKa/j6VgGmuRnMQy/Mrrj9e9SA6PEe0RGKMHxeovP8gR6kwQZuOyt4diuYePnREkWcCr9DEM5eAudSUwZuxCWNT47K8Zhb1yOAcepdUgV1NvAYZjFJU+jr1JmaqLcxjLEUGV99KUu3CUureguQUMQVGbvvwK87b/gopzk3oTHkm9vyMwCsj8qm6Ja//SCJS7PKFw9vyWwlBlCIx0uU+eYnB4iYtUFYehDCb8FM/JU7kQkaOXzUMDFkJChWkcPEb94DGqc9CwoBfvjVFrD3EdL8onmY2z3W8rDAt7rAAzA+qx9V/qImUZiZiHJjmgK+Ipg12khlOkhvvyyZ4fLjvx9ysucU1UmD/4/n/CYqQAT3lgFAB5NNe8Zy/EO2p6E0R422ehJYNT8ea21GHakbz0joxM6gYWTvuJ0tRGqCSrCKZ4GK0iczbqigiNApNjEXPFg51AWqbxJp4EfNW+VI6dlf4cMK9/CnVFVJgZMK++Bt2V1aYvvxRgCMpMYdigZGXYzJI03dZndUtUGavdhuY5Bo+v0b9kRnWF3qNn6MktEi9uQUOl0eFyZkNMubvnz1EptnFe6qB78hSNg0u5MpW/q6pwJTDz0GjrID3cRXp7D4exHLZ5pesu54XPZ3bLPe2eSyMzW+njmr0ZExhmUrQbtWE1eB+p4S4S/QlSwz3YczW85wrh3//Vj/Ef/+59+cg6g1/JmAIZ/NgWwE/sAazHsgiV20j1xoi0Rwi3thDt7mCUqcrlS5H2GOViB7VYSYp5CoyCoirDuWLWT3jFB93RrMVgLfCVu3Im+3zFjUy+hQq/xJasws3YhsW86kCAITi0hYPfAZiDV1SdL7DPYt9zwz1JTPP8s1ldRpqW15/OnjWmIThWeG6AeYHB4+cYPLlG//EVepfPxLoXPJHwfBbTqHtSYKgyeh6Kd+nxi7PHWwdgD4rjl+zVtI+vBBqFZR4YdsUJTXFyjHh3hEZ7C4fFlvHthHcAw5EJZk2cb3nMj3CwgMcOtwKzRfdkDGRlRlME6h2sxLP4wBvBvUAMm+kS/vahDR86w/Lhh/VoHt//YEXmUvhJZFuigPdsXvzl+w/wNw/WcM8bgT1dQrA5wDRRwGU4h0h3F+1sE/lEGWE5QMd6DS8DMJRFgQnWRwKKqss8MOxsh4sdHDoimAbSUqDreeIImee36e4IDGeIXZU+3LXhDTBUmVsxjCWOuVGZr2BAQ6X5HJMrFvY+w/j6DXZoV59h9Ixqw6Lex9i5fo2da9ZsXmPrGavDL2cqcwPMyzlgrtB9xINyVxIEayB84544YH6F9gkzKdNOrlDu7uJJOIftw8dgH4q3XVIlmodPDGUxYxhCQrdEkzEKGaV4hFR/gsLWFMf8FtPoSGZpymYPSmZq2MBkIGyOTNAV9VJV7DZGyM2alkdgI5MKxVs4P/KG8Gcf3McPV2xwZsuItYdItEf44x+9h//tP3wPv/+9P8ZaMIq/+GBRCnfBShfOTAmLgSi+96Mf40crG3Bmyrjvi+IfXEFsr7ow8kThqnblPuFkti7xDWMcY+jcAEbBYaV3M8Ngty2/EyCFhq6Jw1eVVFWqubliF7FgFp1IQSrEnhIVpg9n2XBJVBdXdYCFg49/BjVCM7NXX89imBtgblzUTSD8uWRVzKx2rt5g+9lnhs2AeY3t61fYunqJrae020pjBMSmyjxmCs7U2yj29R8ZWRMzJ82eqDQ38BhZVOuY57yvkU3X8DzbQPfkCq2jpzIszdWqMDNICIoJD2dv6LZYKNupDnDQGEmzUpuW1pXpNRWGkKQaI9QaIxR2+NUW40JqHmG5543h97//Q/zPf/g9xFs9+Ip1rIRToh7vb/rwe9/7U/wv//vv4X/9/f8Df/hXf4X/6ff+Pf7jD9/Hn7+/iD/5yUf40YoNf/CXP8Dv/8UP8Mf/8BH+z7//AH/y/iLGH6wg+N4i/n7DjVyhAX+pI8CEOrsISc3mRmEIjadEYFjB5Zww54hpBjQEhuOcU09MUm5PdQvbjihSebYLOHg+lCxLXRFh+VZg7oLEGgRrFrX34ktMrg1oCMzMxC19LEqzfUVIvgWYS84Gv8Tg8hWGj1/L2n/0CrS3FeYGGAbBNKpN5+QKtaOnGMZLOOhP5VkPp1Fl1N4FDAPjLL/n1NrBFS86UnW5YzWGsk5lnIHzL3RB/PD5R54o/nbJjh+uOPFn7y/h3/5ff46/friKf9j04D17AO85QvjB/XX8u+/9Gf7dH/0x/vrD+/jTn3yAf/NHf4K/frCGpVBKbDWaxkaCh8vK8BZa8q0mftj0Y28CjUQRzmwF/lpPvu8U6UxgBUaVhnAYB/Fbs8qvFRhfbYgy/8dlD0mHOu5PYzdckL8lLAYwQ4FEYRFgDj/5Bkef/lxUZqYur38KxjaHpik8BEZBscKz++LLmcpQaQwXRfdktAuoKqNnhrLcrTCvQTUhHISGpsAoNPyNpuqidRmm2uKejp+JqtS3DnGeqqFvuiJ2fKkyqjRWYGauycykCA0La/v5Fo74/6HTy1vzNFQaVRiqDFNqDnizsrsYTMrng/npGsIT4IfSKy34am0E6j2EZRRzB/5yFz+4tyofPF/mp4HjOSxF+fGqOBL9sWRsvHKEKbU0MOWkAk9dTvCVK4ZYKIsP3SGEGgMwg7oBxnBLxmmFiagJr/lw5TsWdTFVpsEG5QDHviS8oaycNNjfCCBT6sNX5ZFes3nJSnF1KLGLQiMu6bsCo+BYV4LzNjAGNNuMaZ5+gu1nn0p8Y8Q4N30nhWf0jEda6JaujXiGQbCpOARGXRJXVRwNgrl2GRyzyMdRz6On6BXaeFLpy4ww02DOyfI3QlM/fPK2MeU2oeFFQ+XREa5iRTQZ+O4/uuWeOIylRnhYhWXA6yk0ZRhLTlzqcPn2FJntKZL8FCFbB8MjxNsTvO8MyTDXf3LHsJwqI9oZ4QNfGJntfaS2poh1dxFp7yJuVoejvX3kGtv4uSsGXySPH63YEaj1EOnszIAJy7EW4xAdoaFCEBiuVJabQHjbGJModTHYDGKTJwkSFQyjJdAtERY1H2ExgWHAK0GvVWEYy/BZTNWFasN4xjQqj2RWrA6zbvPiy7eAoVuyxjT6TOVhQGwU9qg4PCz3CgSGsYsBjELzwlCay1dGQU8qwS9mbopKo6bAdBjfnF6jvv8Ix9ECjgZTML6hyrCGQmgIjKoM95zyY32GcQyN8Qgn5qqdCco7J7OWAtVFJ/c0puEzVYD1l5/Y/UgzcLZ8+4lZUmab6fUBpPI7PJRyP7vTTFt5DHVD7tyt4X1vGInBGMmh0UKIsAfVP5D+U6S3j3ahi898KZm1/fMPlhBuDRHrjhFh/NLZRdg8cUlYmE4z0HVSXdhfojXNtWF0vevJCjxUmOpAPu/Hk5i+2hb89ZGsVBoC4zGN2ZK7MsAC4Tj+7BfilmawfPKNQDGDw5JBqdtiRkVlmTz/4i0jIAx+rSv3+rwtM8OMb15jdPVSgDGyJkLzEoMnzJwMuynqMRi+AcaqOla1IUR0V5XtY5yHcxhNL2fQ/H/tnUtPE2EUhvlr7o2BCCZqTEgUEQJCo2gpFCitUGjAQkvpFXoLsYCXRUkNC+PW+KNe85zpgaFhgXuafPlmJl1Nn7zn/hUVQYHCwLji8MxNFCaGUJkTGQi7ee7AhKHhOsjitjTyekap4pEy9AmbA0yoHWSAMV2+iJ6GX04rksoocXis9XJLI1Pv9Gzug8gHrZdRlrbihy2tl0+ULJ1otXSiTjKr3tKmYpmCHk++1cpB1RJ6lBIoH8TtYCPmoOo2YWBddMxdFxpazB/bitH1x3W2YiMmTAzQ40LYTfXbv/dxv2btn1FOnACkvgNMqWEIc3QrMAPRk4fcDgy7QwM44QVEgS9zizN8AUi/VO9RwAyAIQTHPIUTe0H0FAzKUbR0gNynCQPjSsPOczNT3y+V3y3pPFdRodO1EBtzA0ymKgOmCWAwP8DBDiwk4QCG+0HT5P4M30mWmhp+Na3kYU3UojBLNtfNqG4/mReUEDo2YvJg9Lneb+5qo9pWotjQo8mIxqYjShbrSvGs3FacaYQ+MBQwu6sZXcS3zPd4OD5pZixRbGqt2FLcTNj1aVj4JwCDYxsGZhGYDurWVwMo+F/8o4l16mWrMlCApb9oAV3M1gwYoGENActdgHFA7gqMQ+NK4+qCHzMITO3i2q8JQwMkYViC++vIKQwN1w6MqcxZT62vHbUa+zr4Qn9w105mwOx437Cri5spYHH1wczwI/ODO0SeGXaThOMbOL9tjU3NKVU61k7Dj1A7V6YfggMVqsW+mq9qdHJWsZ28FjL7iqT3NJ/e1/jCsilOotQwYCg2OjC0PlxGUzpNfjYIns6+V7LUsEOTDJhiy3wZAGCR9qfvhYww6gMkrGju2HYSdt4QRbumNWeFFGYxfxRAY2faBApzBczp779XwLjaANAN89RXm0FYKCOgLOyojd+72qAyAHPTn7kFmO51tRv/JgyNK40rTPkHEdXtjrArzcF5T5VvXf3s5pStBw3YxfOe5WMYxUCB3H/xSQXuHRh2Fr4MYXNYZbj2hUlibdc7ejI9r81K8wYw+EOWs+mrDNfxXEUzq5+UrjQ1sbSuN2tpbTXONBFLaK1QsxICs08rNFT1FWaj0NKfuWVVtvFJjvQiElW6Rn9NwxQGuChaAgvNVvStoDI8o3gZwBJAgOKgKkDFH2Z5c1Zsr3ZlkjBN0dyRmSVMkjvB7EO6/9y/gf94A/8AiLW62eI27PYAAAAASUVORK5CYII=;" parent="0vJlOstJJPzeJg9LQ7au-5" vertex="1">
          <mxGeometry x="1" width="224.63118580765638" height="139.58916900093374" as="geometry" />
        </mxCell>
        <mxCell id="0vJlOstJJPzeJg9LQ7au-3" value="" style="endArrow=none;html=1;rounded=0;" parent="0vJlOstJJPzeJg9LQ7au-5" target="0vJlOstJJPzeJg9LQ7au-2" edge="1">
          <mxGeometry width="50" height="50" relative="1" as="geometry">
            <mxPoint x="91.26984126984128" y="189.10714285714286" as="sourcePoint" />
            <mxPoint x="204.01493930905698" y="315.17857142857144" as="targetPoint" />
          </mxGeometry>
        </mxCell>
        <mxCell id="0vJlOstJJPzeJg9LQ7au-4" value="" style="html=1;rounded=0;strokeWidth=6;fillColor=#60a917;strokeColor=#2D7600;endArrow=none;endFill=0;" parent="0vJlOstJJPzeJg9LQ7au-5" edge="1">
          <mxGeometry width="100" relative="1" as="geometry">
            <mxPoint x="136" y="325" as="sourcePoint" />
            <mxPoint x="96" y="191" as="targetPoint" />
          </mxGeometry>
        </mxCell>
        <mxCell id="0vJlOstJJPzeJg9LQ7au-6" value="&lt;div style=&quot;text-align: justify&quot;&gt;&lt;span&gt;红色：输电线检测成功&amp;nbsp;&lt;/span&gt;&lt;/div&gt;&lt;div style=&quot;text-align: justify&quot;&gt;&lt;span&gt;绿色：输电线检测失败&lt;/span&gt;&lt;/div&gt;" style="text;html=1;strokeColor=none;fillColor=none;align=center;verticalAlign=middle;whiteSpace=wrap;rounded=0;" parent="0vJlOstJJPzeJg9LQ7au-5" vertex="1">
          <mxGeometry x="55" y="152" width="131" height="25.21" as="geometry" />
        </mxCell>
        <mxCell id="0vJlOstJJPzeJg9LQ7au-10" style="edgeStyle=none;rounded=0;orthogonalLoop=1;jettySize=auto;html=1;exitX=1;exitY=0.5;exitDx=0;exitDy=0;entryX=0;entryY=0.5;entryDx=0;entryDy=0;endArrow=classic;endFill=1;strokeWidth=2;" parent="1" source="0vJlOstJJPzeJg9LQ7au-8" target="0vJlOstJJPzeJg9LQ7au-9" edge="1">
          <mxGeometry relative="1" as="geometry" />
        </mxCell>
        <mxCell id="0vJlOstJJPzeJg9LQ7au-8" value="图像输入" style="rounded=1;whiteSpace=wrap;html=1;" parent="1" vertex="1">
          <mxGeometry x="60" y="352" width="81" height="57" as="geometry" />
        </mxCell>
        <mxCell id="0vJlOstJJPzeJg9LQ7au-11" style="edgeStyle=none;rounded=0;orthogonalLoop=1;jettySize=auto;html=1;exitX=1;exitY=0.5;exitDx=0;exitDy=0;endArrow=classic;endFill=1;strokeWidth=2;" parent="1" source="0vJlOstJJPzeJg9LQ7au-9" edge="1">
          <mxGeometry relative="1" as="geometry">
            <mxPoint x="276" y="380" as="targetPoint" />
          </mxGeometry>
        </mxCell>
        <mxCell id="0vJlOstJJPzeJg9LQ7au-9" value="图像增强" style="rounded=1;whiteSpace=wrap;html=1;" parent="1" vertex="1">
          <mxGeometry x="167" y="350" width="80" height="60" as="geometry" />
        </mxCell>
        <mxCell id="0vJlOstJJPzeJg9LQ7au-14" style="edgeStyle=none;rounded=0;orthogonalLoop=1;jettySize=auto;html=1;exitX=1;exitY=0.5;exitDx=0;exitDy=0;endArrow=classic;endFill=1;strokeWidth=2;" parent="1" source="0vJlOstJJPzeJg9LQ7au-12" edge="1">
          <mxGeometry relative="1" as="geometry">
            <mxPoint x="403" y="380" as="targetPoint" />
          </mxGeometry>
        </mxCell>
        <mxCell id="0vJlOstJJPzeJg9LQ7au-12" value="直线检测" style="rounded=1;whiteSpace=wrap;html=1;" parent="1" vertex="1">
          <mxGeometry x="275" y="350" width="86" height="59" as="geometry" />
        </mxCell>
        <mxCell id="0vJlOstJJPzeJg9LQ7au-19" style="edgeStyle=none;rounded=0;orthogonalLoop=1;jettySize=auto;html=1;exitX=1;exitY=0.5;exitDx=0;exitDy=0;entryX=0;entryY=0.5;entryDx=0;entryDy=0;endArrow=classic;endFill=1;strokeWidth=3;" parent="1" source="0vJlOstJJPzeJg9LQ7au-15" target="0vJlOstJJPzeJg9LQ7au-18" edge="1">
          <mxGeometry relative="1" as="geometry" />
        </mxCell>
        <mxCell id="0vJlOstJJPzeJg9LQ7au-15" value="图像比对" style="rounded=1;whiteSpace=wrap;html=1;" parent="1" vertex="1">
          <mxGeometry x="670" y="350" width="80" height="55" as="geometry" />
        </mxCell>
        <mxCell id="0vJlOstJJPzeJg9LQ7au-16" value="" style="endArrow=classic;html=1;rounded=0;strokeWidth=3;entryX=0;entryY=0.5;entryDx=0;entryDy=0;" parent="1" target="0vJlOstJJPzeJg9LQ7au-15" edge="1">
          <mxGeometry width="50" height="50" relative="1" as="geometry">
            <mxPoint x="629" y="377" as="sourcePoint" />
            <mxPoint x="679" y="377" as="targetPoint" />
            <Array as="points" />
          </mxGeometry>
        </mxCell>
        <mxCell id="0vJlOstJJPzeJg9LQ7au-18" value="结果返回" style="rounded=1;whiteSpace=wrap;html=1;" parent="1" vertex="1">
          <mxGeometry x="780" y="350" width="80" height="55" as="geometry" />
        </mxCell>
      </root>
    </mxGraphModel>
  </diagram>
</mxfile>
